<?xml version="1.0" encoding="UTF-8" standalone="no"?>
<svg
   version="1.1"
   viewBox="0 0 585.5 320.5"
   fill="none"
   stroke="none"
   stroke-linecap="square"
   stroke-miterlimit="10"
   width="585.5"
   height="320.5"
   id="svg49"
   sodipodi:docname="comparison-repo-size.svg"
   inkscape:version="1.4.3 (0d15f75, 2025-12-25)"
   xmlns:inkscape="http://www.inkscape.org/namespaces/inkscape"
   xmlns:sodipodi="http://sodipodi.sourceforge.net/DTD/sodipodi-0.dtd"
   xmlns="http://www.w3.org/2000/svg"
   xmlns:svg="http://www.w3.org/2000/svg">
  <defs
     id="defs49" />
  <sodipodi:namedview
     id="namedview49"
     pagecolor="#ffffff"
     bordercolor="#000000"
     borderopacity="0.25"
     inkscape:showpageshadow="2"
     inkscape:pageopacity="0.0"
     inkscape:pagecheckerboard="0"
     inkscape:deskcolor="#d1d1d1"
     inkscape:zoom="2"
     inkscape:cx="285"
     inkscape:cy="153.75"
     inkscape:window-width="1920"
     inkscape:window-height="1111"
     inkscape:window-x="-9"
     inkscape:window-y="-9"
     inkscape:window-maximized="1"
     inkscape:current-layer="svg49" />
  <path
     fill="#ffffff"
     d="M 0,0 H 585.5 V 320.5 H 0 Z"
     fill-rule="nonzero"
     id="path1"
     style="stroke-width:0.918152" />
  <path
     stroke="#cccccc"
     stroke-width="1"
     stroke-linecap="butt"
     d="m 87,19.5 v 249"
     fill-rule="nonzero"
     id="path2" />
  <path
     stroke="#cccccc"
     stroke-width="1"
     stroke-linecap="butt"
     d="m 225,19.5 v 249"
     fill-rule="nonzero"
     id="path3" />
  <path
     stroke="#cccccc"
     stroke-width="1"
     stroke-linecap="butt"
     d="m 363,19.5 v 249"
     fill-rule="nonzero"
     id="path4" />
  <path
     stroke="#cccccc"
     stroke-width="1"
     stroke-linecap="butt"
     d="m 501,19.5 v 249"
     fill-rule="nonzero"
     id="path5" />
  <path
     stroke="#cccccc"
     stroke-width="1"
     stroke-linecap="butt"
     d="M 87,268.5 H 567"
     fill-rule="nonzero"
     id="path6" />
  <path
     stroke="#cccccc"
     stroke-width="1"
     stroke-linecap="butt"
     d="M 87,238.5 H 567"
     fill-rule="nonzero"
     id="path7" />
  <path
     stroke="#cccccc"
     stroke-width="1"
     stroke-linecap="butt"
     d="M 87,168.5 H 567"
     fill-rule="nonzero"
     id="path8" />
  <path
     stroke="#cccccc"
     stroke-width="1"
     stroke-linecap="butt"
     d="M 87,137.5 H 567"
     fill-rule="nonzero"
     id="path9" />
  <path
     stroke="#cccccc"
     stroke-width="1"
     stroke-linecap="butt"
     d="M 87,67.5 H 567"
     fill-rule="nonzero"
     id="path10" />
  <path
     stroke="#cccccc"
     stroke-width="1"
     stroke-linecap="butt"
     d="M 87,37.5 H 567"
     fill-rule="nonzero"
     id="path11" />
  <clipPath
     id="id_0">
    <path
       d="m 101.55,51.916668 h 479.9 V 300.45 h -479.9 z"
       clip-rule="nonzero"
       id="path12" />
  </clipPath>
  <path
     fill="#1c4587"
     clip-path="url(#id_0)"
     d="m 569.69196,81.4381 c 0,17.12083 -13.87916,31 -31,31 -17.12086,0 -31,-13.87917 -31,-31 0,-17.120824 13.87914,-31 31,-31 17.12084,0 31,13.879176 31,31 z"
     fill-rule="nonzero"
     id="path13"
     transform="translate(-14.5,-32)" />
  <path
     fill="#3d85c6"
     clip-path="url(#id_0)"
     d="m 447.7307,145.33257 c 0,8.94276 -7.24953,16.1923 -16.19228,16.1923 -8.94275,0 -16.19229,-7.24954 -16.19229,-16.1923 0,-8.94275 7.24954,-16.1923 16.19229,-16.1923 8.94275,0 16.19228,7.24955 16.19228,16.1923 z"
     fill-rule="nonzero"
     id="path14"
     transform="translate(-14.5,-32)" />
  <path
     fill="#674ea7"
     clip-path="url(#id_0)"
     d="m 428.93478,179.47029 c 0,8.17528 -6.62735,14.80264 -14.80261,14.80264 -8.17529,0 -14.80264,-6.62736 -14.80264,-14.80264 0,-8.17526 6.62735,-14.80263 14.80264,-14.80263 8.17526,0 14.80261,6.62737 14.80261,14.80263 z"
     fill-rule="nonzero"
     id="path15"
     transform="translate(-14.5,-32)" />
  <path
     fill="#45818e"
     clip-path="url(#id_0)"
     d="m 301.10236,199.1021 c 0,5.00396 -4.05652,9.06047 -9.06049,9.06047 -5.00394,0 -9.06047,-4.05651 -9.06047,-9.06047 0,-5.00397 4.05653,-9.06047 9.06047,-9.06047 5.00397,0 9.06049,4.0565 9.06049,9.06047 z"
     fill-rule="nonzero"
     id="path16"
     transform="translate(-14.5,-32)" />
  <path
     fill="#ff68c6"
     clip-path="url(#id_0)"
     d="m 149.09709,281.41 c 0,3.3137 -2.68628,6 -6,6 -3.3137,0 -6,-2.6863 -6,-6 0,-3.31372 2.6863,-6 6,-6 3.31372,0 6,2.68628 6,6 z"
     fill-rule="nonzero"
     id="path17"
     transform="translate(-14.5,-32)" />
  <path
     stroke="#ffffff"
     stroke-width="3"
     stroke-linejoin="round"
     stroke-linecap="round"
     clip-path="url(#id_0)"
     d="m 517.8482,86.4381 h -1.78124 v -1.0625 q -0.4375,0.625 -1.04686,0.9375 -0.6094,0.29688 -1.21877,0.29688 -1.25,0 -2.14063,-1.01563 -0.89062,-1.01562 -0.89062,-2.8125 0,-1.84375 0.85938,-2.79687 0.875,-0.96875 2.20314,-0.96875 1.21873,0 2.10936,1.01562 v -3.60937 h 1.90624 z m -5.125,-3.78125 q 0,1.15625 0.32813,1.67188 0.46877,0.75 1.29687,0.75 0.65626,0 1.125,-0.5625 0.46876,-0.5625 0.46876,-1.6875 0,-1.25 -0.45313,-1.79688 -0.45313,-0.54687 -1.15623,-0.54687 -0.6875,0 -1.15627,0.54687 -0.45313,0.53125 -0.45313,1.625 z m 8.90626,-1.26562 -1.73436,-0.3125 q 0.28123,-1.04688 1,-1.54688 0.71873,-0.51562 2.1406,-0.51562 1.28126,0 1.90626,0.3125 0.64064,0.29687 0.89064,0.76562 0.25,0.46875 0.25,1.71875 l -0.0156,2.23438 q 0,0.96875 0.0937,1.42187 0.0938,0.45313 0.34376,0.96875 h -1.89063 q -0.0781,-0.1875 -0.1875,-0.5625 -0.0469,-0.17187 -0.0781,-0.23437 -0.48437,0.48437 -1.04687,0.73437 -0.5625,0.23438 -1.20313,0.23438 -1.10937,0 -1.7656,-0.60938 -0.64064,-0.60937 -0.64064,-1.54687 0,-0.60938 0.29687,-1.09375 0.29687,-0.48438 0.8125,-0.73438 0.53127,-0.26562 1.53127,-0.45312 1.34373,-0.25 1.875,-0.46875 v -0.1875 q 0,-0.5625 -0.28127,-0.79688 -0.26563,-0.23437 -1.03123,-0.23437 -0.51564,0 -0.7969,0.20312 -0.28124,0.20313 -0.46874,0.70313 z m 2.57814,1.5625 q -0.375,0.125 -1.1719,0.29687 -0.79687,0.17188 -1.04687,0.32813 -0.375,0.26562 -0.375,0.67187 0,0.40625 0.29687,0.70313 0.2969,0.29687 0.76563,0.29687 0.51563,0 1,-0.34375 0.34377,-0.26562 0.45313,-0.64062 0.0781,-0.23438 0.0781,-0.9375 z m 7.3125,-3.78125 v 1.53125 h -1.3125 v 2.9375 q 0,0.875 0.0312,1.03125 0.0469,0.14062 0.17187,0.25 0.14063,0.09375 0.34376,0.09375 0.26564,0 0.76564,-0.1875 l 0.15623,1.48437 q -0.65623,0.29688 -1.51563,0.29688 -0.5156,0 -0.9375,-0.17188 -0.40624,-0.1875 -0.60937,-0.45312 -0.1875,-0.28125 -0.26563,-0.75 -0.0625,-0.34375 -0.0625,-1.35938 v -3.17187 h -0.875 v -1.53125 h 0.875 v -1.4375 l 1.9219,-1.125 v 2.5625 z m 5.875,4.95312 1.92186,0.32813 q -0.375,1.04687 -1.17186,1.60937 -0.7969,0.54688 -1.9844,0.54688 -1.8906,0 -2.8125,-1.25 -0.71874,-0.98438 -0.71874,-2.5 0,-1.79688 0.9375,-2.8125 0.95314,-1.03125 2.40624,-1.03125 1.6094,0 2.5469,1.07812 0.9375,1.0625 0.8906,3.26563 h -4.8125 q 0.0313,0.85937 0.46876,1.34375 0.45314,0.46875 1.10937,0.46875 0.45313,0 0.75,-0.25 0.3125,-0.25 0.46877,-0.79688 z m 0.10936,-1.9375 q -0.0156,-0.84375 -0.42186,-1.26562 -0.40627,-0.4375 -1,-0.4375 -0.625,0 -1.0469,0.45312 -0.40624,0.46875 -0.3906,1.25 z m 4.46874,1.57813 v -1.92188 h 3.78126 v 1.92188 z m 3.39063,-4.59375 h 1.0625 V 78.6256 q 0,-0.90625 0.1875,-1.35937 0.20313,-0.45313 0.71877,-0.73438 0.53123,-0.28125 1.3281,-0.28125 0.8125,0 1.6094,0.23438 l -0.26564,1.34375 q -0.45313,-0.10938 -0.875,-0.10938 -0.42186,0 -0.60936,0.20313 -0.1719,0.1875 -0.1719,0.75 v 0.5 h 1.4375 v 1.51562 h -1.4375 v 5.75 h -1.92187 v -5.75 h -1.0625 z m 12.4375,7.26562 h -1.92187 v -3.70312 q 0,-1.17188 -0.125,-1.51563 -0.125,-0.35937 -0.40626,-0.54687 -0.2656,-0.1875 -0.65624,-0.1875 -0.5,0 -0.90626,0.28125 -0.3906,0.26562 -0.54687,0.71875 -0.14063,0.45312 -0.14063,1.67187 v 3.28125 h -1.92187 v -7.26562 h 1.79687 v 1.07812 q 0.9375,-1.23437 2.39063,-1.23437 0.625,0 1.15627,0.23437 0.53123,0.21875 0.79686,0.57813 0.26564,0.35937 0.375,0.8125 0.10937,0.4375 0.10937,1.28125 z m 1.71877,-2.07812 1.92186,-0.28125 q 0.125,0.54687 0.5,0.84375 0.375,0.29687 1.0625,0.29687 0.73437,0 1.10937,-0.28125 0.26563,-0.1875 0.26563,-0.51562 0,-0.21875 -0.14063,-0.35938 -0.14063,-0.14062 -0.64063,-0.25 -2.3281,-0.51562 -2.9531,-0.9375 -0.8594,-0.59375 -0.8594,-1.64062 0,-0.9375 0.7344,-1.57813 0.75,-0.64062 2.3281,-0.64062 1.4844,0 2.20313,0.48437 0.73437,0.48438 1,1.4375 l -1.8125,0.32813 q -0.10937,-0.42188 -0.4375,-0.64063 -0.32813,-0.23437 -0.92187,-0.23437 -0.76563,0 -1.09376,0.21875 -0.21874,0.14062 -0.21874,0.39062 0,0.20313 0.20314,0.34375 0.25,0.1875 1.78123,0.54688 1.54687,0.34375 2.15627,0.84375 0.59373,0.51562 0.59373,1.4375 0,1 -0.84373,1.71875 -0.82814,0.71875 -2.45314,0.71875 -1.48436,0 -2.35936,-0.60938 -0.8594,-0.60937 -1.125,-1.64062 z"
     fill-rule="nonzero"
     id="path18"
     transform="translate(-14.5,-32)" />
  <path
     fill="#1a1a1a"
     clip-path="url(#id_0)"
     d="m 517.8482,86.4381 h -1.78124 v -1.0625 q -0.4375,0.625 -1.04686,0.9375 -0.6094,0.29688 -1.21877,0.29688 -1.25,0 -2.14063,-1.01563 -0.89062,-1.01562 -0.89062,-2.8125 0,-1.84375 0.85938,-2.79687 0.875,-0.96875 2.20314,-0.96875 1.21873,0 2.10936,1.01562 v -3.60937 h 1.90624 z m -5.125,-3.78125 q 0,1.15625 0.32813,1.67188 0.46877,0.75 1.29687,0.75 0.65626,0 1.125,-0.5625 0.46876,-0.5625 0.46876,-1.6875 0,-1.25 -0.45313,-1.79688 -0.45313,-0.54687 -1.15623,-0.54687 -0.6875,0 -1.15627,0.54687 -0.45313,0.53125 -0.45313,1.625 z m 8.90626,-1.26562 -1.73436,-0.3125 q 0.28123,-1.04688 1,-1.54688 0.71873,-0.51562 2.1406,-0.51562 1.28126,0 1.90626,0.3125 0.64064,0.29687 0.89064,0.76562 0.25,0.46875 0.25,1.71875 l -0.0156,2.23438 q 0,0.96875 0.0937,1.42187 0.0938,0.45313 0.34376,0.96875 h -1.89063 q -0.0781,-0.1875 -0.1875,-0.5625 -0.0469,-0.17187 -0.0781,-0.23437 -0.48437,0.48437 -1.04687,0.73437 -0.5625,0.23438 -1.20313,0.23438 -1.10937,0 -1.7656,-0.60938 -0.64064,-0.60937 -0.64064,-1.54687 0,-0.60938 0.29687,-1.09375 0.29687,-0.48438 0.8125,-0.73438 0.53127,-0.26562 1.53127,-0.45312 1.34373,-0.25 1.875,-0.46875 v -0.1875 q 0,-0.5625 -0.28127,-0.79688 -0.26563,-0.23437 -1.03123,-0.23437 -0.51564,0 -0.7969,0.20312 -0.28124,0.20313 -0.46874,0.70313 z m 2.57814,1.5625 q -0.375,0.125 -1.1719,0.29687 -0.79687,0.17188 -1.04687,0.32813 -0.375,0.26562 -0.375,0.67187 0,0.40625 0.29687,0.70313 0.2969,0.29687 0.76563,0.29687 0.51563,0 1,-0.34375 0.34377,-0.26562 0.45313,-0.64062 0.0781,-0.23438 0.0781,-0.9375 z m 7.3125,-3.78125 v 1.53125 h -1.3125 v 2.9375 q 0,0.875 0.0312,1.03125 0.0469,0.14062 0.17187,0.25 0.14063,0.09375 0.34376,0.09375 0.26564,0 0.76564,-0.1875 l 0.15623,1.48437 q -0.65623,0.29688 -1.51563,0.29688 -0.5156,0 -0.9375,-0.17188 -0.40624,-0.1875 -0.60937,-0.45312 -0.1875,-0.28125 -0.26563,-0.75 -0.0625,-0.34375 -0.0625,-1.35938 v -3.17187 h -0.875 v -1.53125 h 0.875 v -1.4375 l 1.9219,-1.125 v 2.5625 z m 5.875,4.95312 1.92186,0.32813 q -0.375,1.04687 -1.17186,1.60937 -0.7969,0.54688 -1.9844,0.54688 -1.8906,0 -2.8125,-1.25 -0.71874,-0.98438 -0.71874,-2.5 0,-1.79688 0.9375,-2.8125 0.95314,-1.03125 2.40624,-1.03125 1.6094,0 2.5469,1.07812 0.9375,1.0625 0.8906,3.26563 h -4.8125 q 0.0313,0.85937 0.46876,1.34375 0.45314,0.46875 1.10937,0.46875 0.45313,0 0.75,-0.25 0.3125,-0.25 0.46877,-0.79688 z m 0.10936,-1.9375 q -0.0156,-0.84375 -0.42186,-1.26562 -0.40627,-0.4375 -1,-0.4375 -0.625,0 -1.0469,0.45312 -0.40624,0.46875 -0.3906,1.25 z m 4.46874,1.57813 v -1.92188 h 3.78126 v 1.92188 z m 3.39063,-4.59375 h 1.0625 V 78.6256 q 0,-0.90625 0.1875,-1.35937 0.20313,-0.45313 0.71877,-0.73438 0.53123,-0.28125 1.3281,-0.28125 0.8125,0 1.6094,0.23438 l -0.26564,1.34375 q -0.45313,-0.10938 -0.875,-0.10938 -0.42186,0 -0.60936,0.20313 -0.1719,0.1875 -0.1719,0.75 v 0.5 h 1.4375 v 1.51562 h -1.4375 v 5.75 h -1.92187 v -5.75 h -1.0625 z m 12.4375,7.26562 h -1.92187 v -3.70312 q 0,-1.17188 -0.125,-1.51563 -0.125,-0.35937 -0.40626,-0.54687 -0.2656,-0.1875 -0.65624,-0.1875 -0.5,0 -0.90626,0.28125 -0.3906,0.26562 -0.54687,0.71875 -0.14063,0.45312 -0.14063,1.67187 v 3.28125 h -1.92187 v -7.26562 h 1.79687 v 1.07812 q 0.9375,-1.23437 2.39063,-1.23437 0.625,0 1.15627,0.23437 0.53123,0.21875 0.79686,0.57813 0.26564,0.35937 0.375,0.8125 0.10937,0.4375 0.10937,1.28125 z m 1.71877,-2.07812 1.92186,-0.28125 q 0.125,0.54687 0.5,0.84375 0.375,0.29687 1.0625,0.29687 0.73437,0 1.10937,-0.28125 0.26563,-0.1875 0.26563,-0.51562 0,-0.21875 -0.14063,-0.35938 -0.14063,-0.14062 -0.64063,-0.25 -2.3281,-0.51562 -2.9531,-0.9375 -0.8594,-0.59375 -0.8594,-1.64062 0,-0.9375 0.7344,-1.57813 0.75,-0.64062 2.3281,-0.64062 1.4844,0 2.20313,0.48437 0.73437,0.48438 1,1.4375 l -1.8125,0.32813 q -0.10937,-0.42188 -0.4375,-0.64063 -0.32813,-0.23437 -0.92187,-0.23437 -0.76563,0 -1.09376,0.21875 -0.21874,0.14062 -0.21874,0.39062 0,0.20313 0.20314,0.34375 0.25,0.1875 1.78123,0.54688 1.54687,0.34375 2.15627,0.84375 0.59373,0.51562 0.59373,1.4375 0,1 -0.84373,1.71875 -0.82814,0.71875 -2.45314,0.71875 -1.48436,0 -2.35936,-0.60938 -0.8594,-0.60937 -1.125,-1.64062 z"
     fill-rule="nonzero"
     id="path19"
     transform="translate(-14.5,-32)" />
  <path
     stroke="#ffffff"
     stroke-width="3"
     stroke-linejoin="round"
     stroke-linecap="round"
     clip-path="url(#id_0)"
     d="m 396.0228,150.33257 v -10.01563 h 3.03125 l 1.82812,6.82813 1.79688,-6.82813 h 3.03125 v 10.01563 h -1.875 v -7.89063 l -2,7.89063 h -1.9375 l -1.98438,-7.89063 v 7.89063 z m 12.57812,-3.73438 q 0,-0.95312 0.46875,-1.84375 0.46875,-0.90625 1.32813,-1.375 0.875,-0.46875 1.9375,-0.46875 1.65625,0 2.70312,1.07813 1.04688,1.0625 1.04688,2.6875 0,1.65625 -1.0625,2.75 -1.0625,1.07812 -2.67188,1.07812 -1,0 -1.90625,-0.45312 -0.90625,-0.45313 -1.375,-1.32813 -0.46875,-0.875 -0.46875,-2.125 z m 1.96875,0.10938 q 0,1.07812 0.51563,1.65625 0.51562,0.5625 1.26562,0.5625 0.75,0 1.25,-0.5625 0.51563,-0.57813 0.51563,-1.67188 0,-1.0625 -0.51563,-1.64062 -0.5,-0.57813 -1.25,-0.57813 -0.75,0 -1.26562,0.57813 -0.51563,0.57812 -0.51563,1.65625 z m 7.32813,-3.64063 h 1.76562 v 1 q 0.95313,-1.15625 2.26563,-1.15625 0.70312,0 1.21875,0.29688 0.51562,0.28125 0.84375,0.85937 0.46875,-0.57812 1.01562,-0.85937 0.5625,-0.29688 1.1875,-0.29688 0.79688,0 1.34375,0.32813 0.5625,0.3125 0.84375,0.95312 0.20313,0.45313 0.20313,1.5 v 4.64063 h -1.92188 v -4.15625 q 0,-1.07813 -0.20312,-1.39063 -0.26563,-0.40625 -0.82813,-0.40625 -0.39062,0 -0.75,0.25 -0.35937,0.23438 -0.51562,0.71875 -0.15625,0.46875 -0.15625,1.5 v 3.48438 h -1.92188 v -3.98438 q 0,-1.04687 -0.10937,-1.35937 -0.0937,-0.3125 -0.3125,-0.45313 -0.21875,-0.15625 -0.57813,-0.15625 -0.45312,0 -0.8125,0.25 -0.34375,0.23438 -0.5,0.6875 -0.15625,0.4375 -0.15625,1.48438 v 3.53125 h -1.92187 z m 16.34375,4.95313 1.92187,0.32812 q -0.375,1.04688 -1.17187,1.60938 -0.79688,0.54687 -1.98438,0.54687 -1.89062,0 -2.8125,-1.25 -0.71875,-0.98437 -0.71875,-2.5 0,-1.79687 0.9375,-2.8125 0.95313,-1.03125 2.40625,-1.03125 1.60938,0 2.54688,1.07813 0.9375,1.0625 0.89062,3.26562 h -4.8125 q 0.0312,0.85938 0.46875,1.34375 0.45313,0.46875 1.10938,0.46875 0.45312,0 0.75,-0.25 0.3125,-0.25 0.46875,-0.79687 z m 0.10937,-1.9375 q -0.0156,-0.84375 -0.42187,-1.26563 -0.40625,-0.4375 -1,-0.4375 -0.625,0 -1.04688,0.45313 -0.40625,0.46875 -0.39062,1.25 z m 11.29688,4.25 h -1.92188 v -3.70313 q 0,-1.17187 -0.125,-1.51562 -0.125,-0.35938 -0.40625,-0.54688 -0.26562,-0.1875 -0.65625,-0.1875 -0.5,0 -0.90625,0.28125 -0.39062,0.26563 -0.54687,0.71875 -0.14063,0.45313 -0.14063,1.67188 v 3.28125 h -1.92187 v -7.26563 h 1.79687 v 1.07813 q 0.9375,-1.23438 2.39063,-1.23438 0.625,0 1.15625,0.23438 0.53125,0.21875 0.79687,0.57812 0.26563,0.35938 0.375,0.8125 0.10938,0.4375 0.10938,1.28125 z m 5.71875,-7.26563 v 1.53125 h -1.3125 v 2.9375 q 0,0.875 0.0312,1.03125 0.0469,0.14063 0.17187,0.25 0.14063,0.0937 0.34375,0.0937 0.26563,0 0.76563,-0.1875 l 0.15625,1.48438 q -0.65625,0.29687 -1.51563,0.29687 -0.51562,0 -0.9375,-0.17187 -0.40625,-0.1875 -0.60937,-0.45313 -0.1875,-0.28125 -0.26563,-0.75 -0.0625,-0.34375 -0.0625,-1.35937 v -3.17188 h -0.875 v -1.53125 h 0.875 v -1.4375 l 1.92188,-1.125 v 2.5625 z m 1.67187,7.26563 v -1.92188 h 1.92188 v 1.92188 z m 3.96875,-8.25 v -1.76563 h 1.92188 v 1.76563 z m 1.92188,0.98437 v 7.04688 q 0,1.375 -0.1875,1.9375 -0.1875,0.57812 -0.70313,0.90625 -0.51562,0.32812 -1.3125,0.32812 -0.28125,0 -0.625,-0.0625 -0.32812,-0.0469 -0.70312,-0.15625 l 0.32812,-1.64062 q 0.14063,0.0312 0.26563,0.0469 0.10937,0.0156 0.21875,0.0156 0.29687,0 0.48437,-0.125 0.1875,-0.125 0.25,-0.3125 0.0625,-0.17188 0.0625,-1.04688 v -6.9375 z m 1.4375,5.1875 1.92187,-0.28125 q 0.125,0.54688 0.5,0.84375 0.375,0.29688 1.0625,0.29688 0.73438,0 1.10938,-0.28125 0.26562,-0.1875 0.26562,-0.51563 0,-0.21875 -0.14062,-0.35937 -0.14063,-0.14063 -0.64063,-0.25 -2.32812,-0.51563 -2.95312,-0.9375 -0.85938,-0.59375 -0.85938,-1.64063 0,-0.9375 0.73438,-1.57812 0.75,-0.64063 2.32812,-0.64063 1.48438,0 2.20313,0.48438 0.73437,0.48437 1,1.4375 l -1.8125,0.32812 q -0.10938,-0.42187 -0.4375,-0.64062 -0.32813,-0.23438 -0.92188,-0.23438 -0.76562,0 -1.09375,0.21875 -0.21875,0.14063 -0.21875,0.39063 0,0.20312 0.20313,0.34375 0.25,0.1875 1.78125,0.54687 1.54687,0.34375 2.15625,0.84375 0.59375,0.51563 0.59375,1.4375 0,1 -0.84375,1.71875 -0.82813,0.71875 -2.45313,0.71875 -1.48437,0 -2.35937,-0.60937 -0.85938,-0.60938 -1.125,-1.64063 z"
     fill-rule="nonzero"
     id="path20"
     transform="translate(-14.546885,-56)" />
  <path
     fill="#1a1a1a"
     clip-path="url(#id_0)"
     d="m 396.0228,150.33257 v -10.01563 h 3.03125 l 1.82812,6.82813 1.79688,-6.82813 h 3.03125 v 10.01563 h -1.875 v -7.89063 l -2,7.89063 h -1.9375 l -1.98438,-7.89063 v 7.89063 z m 12.57812,-3.73438 q 0,-0.95312 0.46875,-1.84375 0.46875,-0.90625 1.32813,-1.375 0.875,-0.46875 1.9375,-0.46875 1.65625,0 2.70312,1.07813 1.04688,1.0625 1.04688,2.6875 0,1.65625 -1.0625,2.75 -1.0625,1.07812 -2.67188,1.07812 -1,0 -1.90625,-0.45312 -0.90625,-0.45313 -1.375,-1.32813 -0.46875,-0.875 -0.46875,-2.125 z m 1.96875,0.10938 q 0,1.07812 0.51563,1.65625 0.51562,0.5625 1.26562,0.5625 0.75,0 1.25,-0.5625 0.51563,-0.57813 0.51563,-1.67188 0,-1.0625 -0.51563,-1.64062 -0.5,-0.57813 -1.25,-0.57813 -0.75,0 -1.26562,0.57813 -0.51563,0.57812 -0.51563,1.65625 z m 7.32813,-3.64063 h 1.76562 v 1 q 0.95313,-1.15625 2.26563,-1.15625 0.70312,0 1.21875,0.29688 0.51562,0.28125 0.84375,0.85937 0.46875,-0.57812 1.01562,-0.85937 0.5625,-0.29688 1.1875,-0.29688 0.79688,0 1.34375,0.32813 0.5625,0.3125 0.84375,0.95312 0.20313,0.45313 0.20313,1.5 v 4.64063 h -1.92188 v -4.15625 q 0,-1.07813 -0.20312,-1.39063 -0.26563,-0.40625 -0.82813,-0.40625 -0.39062,0 -0.75,0.25 -0.35937,0.23438 -0.51562,0.71875 -0.15625,0.46875 -0.15625,1.5 v 3.48438 h -1.92188 v -3.98438 q 0,-1.04687 -0.10937,-1.35937 -0.0937,-0.3125 -0.3125,-0.45313 -0.21875,-0.15625 -0.57813,-0.15625 -0.45312,0 -0.8125,0.25 -0.34375,0.23438 -0.5,0.6875 -0.15625,0.4375 -0.15625,1.48438 v 3.53125 h -1.92187 z m 16.34375,4.95313 1.92187,0.32812 q -0.375,1.04688 -1.17187,1.60938 -0.79688,0.54687 -1.98438,0.54687 -1.89062,0 -2.8125,-1.25 -0.71875,-0.98437 -0.71875,-2.5 0,-1.79687 0.9375,-2.8125 0.95313,-1.03125 2.40625,-1.03125 1.60938,0 2.54688,1.07813 0.9375,1.0625 0.89062,3.26562 h -4.8125 q 0.0312,0.85938 0.46875,1.34375 0.45313,0.46875 1.10938,0.46875 0.45312,0 0.75,-0.25 0.3125,-0.25 0.46875,-0.79687 z m 0.10937,-1.9375 q -0.0156,-0.84375 -0.42187,-1.26563 -0.40625,-0.4375 -1,-0.4375 -0.625,0 -1.04688,0.45313 -0.40625,0.46875 -0.39062,1.25 z m 11.29688,4.25 h -1.92188 v -3.70313 q 0,-1.17187 -0.125,-1.51562 -0.125,-0.35938 -0.40625,-0.54688 -0.26562,-0.1875 -0.65625,-0.1875 -0.5,0 -0.90625,0.28125 -0.39062,0.26563 -0.54687,0.71875 -0.14063,0.45313 -0.14063,1.67188 v 3.28125 h -1.92187 v -7.26563 h 1.79687 v 1.07813 q 0.9375,-1.23438 2.39063,-1.23438 0.625,0 1.15625,0.23438 0.53125,0.21875 0.79687,0.57812 0.26563,0.35938 0.375,0.8125 0.10938,0.4375 0.10938,1.28125 z m 5.71875,-7.26563 v 1.53125 h -1.3125 v 2.9375 q 0,0.875 0.0312,1.03125 0.0469,0.14063 0.17187,0.25 0.14063,0.0937 0.34375,0.0937 0.26563,0 0.76563,-0.1875 l 0.15625,1.48438 q -0.65625,0.29687 -1.51563,0.29687 -0.51562,0 -0.9375,-0.17187 -0.40625,-0.1875 -0.60937,-0.45313 -0.1875,-0.28125 -0.26563,-0.75 -0.0625,-0.34375 -0.0625,-1.35937 v -3.17188 h -0.875 v -1.53125 h 0.875 v -1.4375 l 1.92188,-1.125 v 2.5625 z m 1.67187,7.26563 v -1.92188 h 1.92188 v 1.92188 z m 3.96875,-8.25 v -1.76563 h 1.92188 v 1.76563 z m 1.92188,0.98437 v 7.04688 q 0,1.375 -0.1875,1.9375 -0.1875,0.57812 -0.70313,0.90625 -0.51562,0.32812 -1.3125,0.32812 -0.28125,0 -0.625,-0.0625 -0.32812,-0.0469 -0.70312,-0.15625 l 0.32812,-1.64062 q 0.14063,0.0312 0.26563,0.0469 0.10937,0.0156 0.21875,0.0156 0.29687,0 0.48437,-0.125 0.1875,-0.125 0.25,-0.3125 0.0625,-0.17188 0.0625,-1.04688 v -6.9375 z m 1.4375,5.1875 1.92187,-0.28125 q 0.125,0.54688 0.5,0.84375 0.375,0.29688 1.0625,0.29688 0.73438,0 1.10938,-0.28125 0.26562,-0.1875 0.26562,-0.51563 0,-0.21875 -0.14062,-0.35937 -0.14063,-0.14063 -0.64063,-0.25 -2.32812,-0.51563 -2.95312,-0.9375 -0.85938,-0.59375 -0.85938,-1.64063 0,-0.9375 0.73438,-1.57812 0.75,-0.64063 2.32812,-0.64063 1.48438,0 2.20313,0.48438 0.73437,0.48437 1,1.4375 l -1.8125,0.32812 q -0.10938,-0.42187 -0.4375,-0.64062 -0.32813,-0.23438 -0.92188,-0.23438 -0.76562,0 -1.09375,0.21875 -0.21875,0.14063 -0.21875,0.39063 0,0.20312 0.20313,0.34375 0.25,0.1875 1.78125,0.54687 1.54687,0.34375 2.15625,0.84375 0.59375,0.51563 0.59375,1.4375 0,1 -0.84375,1.71875 -0.82813,0.71875 -2.45313,0.71875 -1.48437,0 -2.35937,-0.60937 -0.85938,-0.60938 -1.125,-1.64063 z"
     fill-rule="nonzero"
     id="path21"
     transform="translate(-14.546885,-56)" />
  <path
     stroke="#ffffff"
     stroke-width="3"
     stroke-linejoin="round"
     stroke-linecap="round"
     clip-path="url(#id_0)"
     d="m 394.6478,174.45467 h 3.6875 q 1.26562,0 1.92187,0.1875 0.875,0.25 1.5,0.92187 0.625,0.65625 0.95313,1.625 0.32812,0.95313 0.32812,2.35938 0,1.25 -0.29687,2.14062 -0.375,1.09375 -1.07813,1.76563 -0.53125,0.51562 -1.42187,0.79687 -0.67188,0.21875 -1.79688,0.21875 h -3.79687 z m 2.01562,1.6875 v 6.64062 h 1.51563 q 0.84375,0 1.21875,-0.0937 0.5,-0.125 0.8125,-0.42187 0.32812,-0.29688 0.53125,-0.96875 0.21875,-0.67188 0.21875,-1.82813 0,-1.17187 -0.21875,-1.78125 -0.20313,-0.625 -0.57813,-0.96875 -0.35937,-0.35937 -0.92187,-0.48437 -0.42188,-0.0937 -1.67188,-0.0937 z m 9.40625,3.28125 -1.73437,-0.3125 q 0.28125,-1.04688 1,-1.54688 0.71875,-0.51562 2.14062,-0.51562 1.28125,0 1.90625,0.3125 0.64063,0.29687 0.89063,0.76562 0.25,0.46875 0.25,1.71875 l -0.0156,2.23438 q 0,0.96875 0.0937,1.42187 0.0937,0.45313 0.34375,0.96875 h -1.89062 q -0.0781,-0.1875 -0.1875,-0.5625 -0.0469,-0.17187 -0.0781,-0.23437 -0.48437,0.48437 -1.04687,0.73437 -0.5625,0.23438 -1.20313,0.23438 -1.10937,0 -1.76562,-0.60938 -0.64063,-0.60937 -0.64063,-1.54687 0,-0.60938 0.29688,-1.09375 0.29687,-0.48438 0.8125,-0.73438 0.53125,-0.26562 1.53125,-0.45312 1.34375,-0.25 1.875,-0.46875 v -0.1875 q 0,-0.5625 -0.28125,-0.79688 -0.26563,-0.23437 -1.03125,-0.23437 -0.51563,0 -0.79688,0.20312 -0.28125,0.20313 -0.46875,0.70313 z m 2.57813,1.5625 q -0.375,0.125 -1.17188,0.29687 -0.79687,0.17188 -1.04687,0.32813 -0.375,0.26562 -0.375,0.67187 0,0.40625 0.29687,0.70313 0.29688,0.29687 0.76563,0.29687 0.51562,0 1,-0.34375 0.34375,-0.26562 0.45312,-0.64062 0.0781,-0.23438 0.0781,-0.9375 z m 3.07812,-3.78125 h 2.04688 l 1.73437,5.15625 1.70313,-5.15625 h 1.98437 l -2.5625,6.98437 -0.45312,1.26563 q -0.26563,0.64062 -0.5,0.96875 -0.21875,0.34375 -0.51563,0.54687 -0.29687,0.21875 -0.73437,0.32813 -0.4375,0.125 -0.98438,0.125 -0.54687,0 -1.07812,-0.125 l -0.17188,-1.5 q 0.45313,0.0937 0.8125,0.0937 0.67188,0 0.98438,-0.40625 0.32812,-0.39063 0.5,-1 z m 7.90625,7.26562 v -1.92187 h 1.92188 v 1.92187 z m 3.96875,-8.25 v -1.76562 h 1.92188 v 1.76562 z m 1.92188,0.98438 v 7.04687 q 0,1.375 -0.1875,1.9375 -0.1875,0.57813 -0.70313,0.90625 -0.51562,0.32813 -1.3125,0.32813 -0.28125,0 -0.625,-0.0625 -0.32812,-0.0469 -0.70312,-0.15625 l 0.32812,-1.64063 q 0.14063,0.0312 0.26563,0.0469 0.10937,0.0156 0.21875,0.0156 0.29687,0 0.48437,-0.125 0.1875,-0.125 0.25,-0.3125 0.0625,-0.17187 0.0625,-1.04687 v -6.9375 z m 1.4375,5.1875 1.92187,-0.28125 q 0.125,0.54687 0.5,0.84375 0.375,0.29687 1.0625,0.29687 0.73438,0 1.10938,-0.28125 0.26562,-0.1875 0.26562,-0.51562 0,-0.21875 -0.14062,-0.35938 -0.14063,-0.14062 -0.64063,-0.25 -2.32812,-0.51562 -2.95312,-0.9375 -0.85938,-0.59375 -0.85938,-1.64062 0,-0.9375 0.73438,-1.57813 0.75,-0.64062 2.32812,-0.64062 1.48438,0 2.20313,0.48437 0.73437,0.48438 1,1.4375 l -1.8125,0.32813 q -0.10938,-0.42188 -0.4375,-0.64063 -0.32813,-0.23437 -0.92188,-0.23437 -0.76562,0 -1.09375,0.21875 -0.21875,0.14062 -0.21875,0.39062 0,0.20313 0.20313,0.34375 0.25,0.1875 1.78125,0.54688 1.54687,0.34375 2.15625,0.84375 0.59375,0.51562 0.59375,1.4375 0,1 -0.84375,1.71875 -0.82813,0.71875 -2.45313,0.71875 -1.48437,0 -2.35937,-0.60938 -0.85938,-0.60937 -1.125,-1.64062 z"
     fill-rule="nonzero"
     id="path22"
     transform="translate(-14.56252,-10)" />
  <path
     fill="#1a1a1a"
     clip-path="url(#id_0)"
     d="m 394.6478,174.45467 h 3.6875 q 1.26562,0 1.92187,0.1875 0.875,0.25 1.5,0.92187 0.625,0.65625 0.95313,1.625 0.32812,0.95313 0.32812,2.35938 0,1.25 -0.29687,2.14062 -0.375,1.09375 -1.07813,1.76563 -0.53125,0.51562 -1.42187,0.79687 -0.67188,0.21875 -1.79688,0.21875 h -3.79687 z m 2.01562,1.6875 v 6.64062 h 1.51563 q 0.84375,0 1.21875,-0.0937 0.5,-0.125 0.8125,-0.42187 0.32812,-0.29688 0.53125,-0.96875 0.21875,-0.67188 0.21875,-1.82813 0,-1.17187 -0.21875,-1.78125 -0.20313,-0.625 -0.57813,-0.96875 -0.35937,-0.35937 -0.92187,-0.48437 -0.42188,-0.0937 -1.67188,-0.0937 z m 9.40625,3.28125 -1.73437,-0.3125 q 0.28125,-1.04688 1,-1.54688 0.71875,-0.51562 2.14062,-0.51562 1.28125,0 1.90625,0.3125 0.64063,0.29687 0.89063,0.76562 0.25,0.46875 0.25,1.71875 l -0.0156,2.23438 q 0,0.96875 0.0937,1.42187 0.0937,0.45313 0.34375,0.96875 h -1.89062 q -0.0781,-0.1875 -0.1875,-0.5625 -0.0469,-0.17187 -0.0781,-0.23437 -0.48437,0.48437 -1.04687,0.73437 -0.5625,0.23438 -1.20313,0.23438 -1.10937,0 -1.76562,-0.60938 -0.64063,-0.60937 -0.64063,-1.54687 0,-0.60938 0.29688,-1.09375 0.29687,-0.48438 0.8125,-0.73438 0.53125,-0.26562 1.53125,-0.45312 1.34375,-0.25 1.875,-0.46875 v -0.1875 q 0,-0.5625 -0.28125,-0.79688 -0.26563,-0.23437 -1.03125,-0.23437 -0.51563,0 -0.79688,0.20312 -0.28125,0.20313 -0.46875,0.70313 z m 2.57813,1.5625 q -0.375,0.125 -1.17188,0.29687 -0.79687,0.17188 -1.04687,0.32813 -0.375,0.26562 -0.375,0.67187 0,0.40625 0.29687,0.70313 0.29688,0.29687 0.76563,0.29687 0.51562,0 1,-0.34375 0.34375,-0.26562 0.45312,-0.64062 0.0781,-0.23438 0.0781,-0.9375 z m 3.07812,-3.78125 h 2.04688 l 1.73437,5.15625 1.70313,-5.15625 h 1.98437 l -2.5625,6.98437 -0.45312,1.26563 q -0.26563,0.64062 -0.5,0.96875 -0.21875,0.34375 -0.51563,0.54687 -0.29687,0.21875 -0.73437,0.32813 -0.4375,0.125 -0.98438,0.125 -0.54687,0 -1.07812,-0.125 l -0.17188,-1.5 q 0.45313,0.0937 0.8125,0.0937 0.67188,0 0.98438,-0.40625 0.32812,-0.39063 0.5,-1 z m 7.90625,7.26562 v -1.92187 h 1.92188 v 1.92187 z m 3.96875,-8.25 v -1.76562 h 1.92188 v 1.76562 z m 1.92188,0.98438 v 7.04687 q 0,1.375 -0.1875,1.9375 -0.1875,0.57813 -0.70313,0.90625 -0.51562,0.32813 -1.3125,0.32813 -0.28125,0 -0.625,-0.0625 -0.32812,-0.0469 -0.70312,-0.15625 l 0.32812,-1.64063 q 0.14063,0.0312 0.26563,0.0469 0.10937,0.0156 0.21875,0.0156 0.29687,0 0.48437,-0.125 0.1875,-0.125 0.25,-0.3125 0.0625,-0.17187 0.0625,-1.04687 v -6.9375 z m 1.4375,5.1875 1.92187,-0.28125 q 0.125,0.54687 0.5,0.84375 0.375,0.29687 1.0625,0.29687 0.73438,0 1.10938,-0.28125 0.26562,-0.1875 0.26562,-0.51562 0,-0.21875 -0.14062,-0.35938 -0.14063,-0.14062 -0.64063,-0.25 -2.32812,-0.51562 -2.95312,-0.9375 -0.85938,-0.59375 -0.85938,-1.64062 0,-0.9375 0.73438,-1.57813 0.75,-0.64062 2.32812,-0.64062 1.48438,0 2.20313,0.48437 0.73437,0.48438 1,1.4375 l -1.8125,0.32813 q -0.10938,-0.42188 -0.4375,-0.64063 -0.32813,-0.23437 -0.92188,-0.23437 -0.76562,0 -1.09375,0.21875 -0.21875,0.14062 -0.21875,0.39062 0,0.20313 0.20313,0.34375 0.25,0.1875 1.78125,0.54688 1.54687,0.34375 2.15625,0.84375 0.59375,0.51562 0.59375,1.4375 0,1 -0.84375,1.71875 -0.82813,0.71875 -2.45313,0.71875 -1.48437,0 -2.35937,-0.60938 -0.85938,-0.60937 -1.125,-1.64062 z"
     fill-rule="nonzero"
     id="path23"
     transform="translate(-14.56252,-10)" />
  <path
     stroke="#ffffff"
     stroke-width="3"
     stroke-linejoin="round"
     stroke-linecap="round"
     clip-path="url(#id_0)"
     d="m 271.62,204.1021 v -9.9375 h 2.01562 v 8.25 h 5.03125 v 1.6875 z m 12.70312,0 v -1.09375 q -0.39062,0.59375 -1.04687,0.9375 -0.64063,0.32812 -1.35938,0.32812 -0.73437,0 -1.3125,-0.32812 -0.57812,-0.32813 -0.84375,-0.90625 -0.25,-0.57813 -0.25,-1.60938 v -4.59375 h 1.92188 v 3.34375 q 0,1.53125 0.0937,1.875 0.10937,0.34375 0.39062,0.54688 0.28125,0.20312 0.71875,0.20312 0.48438,0 0.875,-0.26562 0.39063,-0.28125 0.53125,-0.67188 0.14063,-0.40625 0.14063,-1.96875 v -3.0625 h 1.92187 v 7.26563 z m 3.29688,0 2.625,-3.73438 -2.51563,-3.53125 h 2.34375 l 1.29688,2 1.34375,-2 h 2.26562 l -2.46875,3.4375 2.6875,3.82813 h -2.35937 l -1.46875,-2.25 -1.5,2.25 z m 8.48437,-3.73438 q 0,-0.95312 0.46875,-1.84375 0.46875,-0.90625 1.32813,-1.375 0.875,-0.46875 1.9375,-0.46875 1.65625,0 2.70312,1.07813 1.04688,1.0625 1.04688,2.6875 0,1.65625 -1.0625,2.75 -1.0625,1.07812 -2.67188,1.07812 -1,0 -1.90625,-0.45312 -0.90625,-0.45313 -1.375,-1.32813 -0.46875,-0.875 -0.46875,-2.125 z m 1.96875,0.10938 q 0,1.07812 0.51563,1.65625 0.51562,0.5625 1.26562,0.5625 0.75,0 1.25,-0.5625 0.51563,-0.57813 0.51563,-1.67188 0,-1.0625 -0.51563,-1.64062 -0.5,-0.57813 -1.25,-0.57813 -0.75,0 -1.26562,0.57813 -0.51563,0.57812 -0.51563,1.65625 z m 14.07813,3.625 h -1.92188 v -3.70313 q 0,-1.17187 -0.125,-1.51562 -0.125,-0.35938 -0.40625,-0.54688 -0.26562,-0.1875 -0.65625,-0.1875 -0.5,0 -0.90625,0.28125 -0.39062,0.26563 -0.54687,0.71875 -0.14063,0.45313 -0.14063,1.67188 v 3.28125 h -1.92187 v -7.26563 h 1.79687 v 1.07813 q 0.9375,-1.23438 2.39063,-1.23438 0.625,0 1.15625,0.23438 0.53125,0.21875 0.79687,0.57812 0.26563,0.35938 0.375,0.8125 0.10938,0.4375 0.10938,1.28125 z"
     fill-rule="nonzero"
     id="path24"
     transform="translate(-14.5,-50)" />
  <path
     fill="#1a1a1a"
     clip-path="url(#id_0)"
     d="m 271.62,204.1021 v -9.9375 h 2.01562 v 8.25 h 5.03125 v 1.6875 z m 12.70312,0 v -1.09375 q -0.39062,0.59375 -1.04687,0.9375 -0.64063,0.32812 -1.35938,0.32812 -0.73437,0 -1.3125,-0.32812 -0.57812,-0.32813 -0.84375,-0.90625 -0.25,-0.57813 -0.25,-1.60938 v -4.59375 h 1.92188 v 3.34375 q 0,1.53125 0.0937,1.875 0.10937,0.34375 0.39062,0.54688 0.28125,0.20312 0.71875,0.20312 0.48438,0 0.875,-0.26562 0.39063,-0.28125 0.53125,-0.67188 0.14063,-0.40625 0.14063,-1.96875 v -3.0625 h 1.92187 v 7.26563 z m 3.29688,0 2.625,-3.73438 -2.51563,-3.53125 h 2.34375 l 1.29688,2 1.34375,-2 h 2.26562 l -2.46875,3.4375 2.6875,3.82813 h -2.35937 l -1.46875,-2.25 -1.5,2.25 z m 8.48437,-3.73438 q 0,-0.95312 0.46875,-1.84375 0.46875,-0.90625 1.32813,-1.375 0.875,-0.46875 1.9375,-0.46875 1.65625,0 2.70312,1.07813 1.04688,1.0625 1.04688,2.6875 0,1.65625 -1.0625,2.75 -1.0625,1.07812 -2.67188,1.07812 -1,0 -1.90625,-0.45312 -0.90625,-0.45313 -1.375,-1.32813 -0.46875,-0.875 -0.46875,-2.125 z m 1.96875,0.10938 q 0,1.07812 0.51563,1.65625 0.51562,0.5625 1.26562,0.5625 0.75,0 1.25,-0.5625 0.51563,-0.57813 0.51563,-1.67188 0,-1.0625 -0.51563,-1.64062 -0.5,-0.57813 -1.25,-0.57813 -0.75,0 -1.26562,0.57813 -0.51563,0.57812 -0.51563,1.65625 z m 14.07813,3.625 h -1.92188 v -3.70313 q 0,-1.17187 -0.125,-1.51562 -0.125,-0.35938 -0.40625,-0.54688 -0.26562,-0.1875 -0.65625,-0.1875 -0.5,0 -0.90625,0.28125 -0.39062,0.26563 -0.54687,0.71875 -0.14063,0.45313 -0.14063,1.67188 v 3.28125 h -1.92187 v -7.26563 h 1.79687 v 1.07813 q 0.9375,-1.23438 2.39063,-1.23438 0.625,0 1.15625,0.23438 0.53125,0.21875 0.79687,0.57812 0.26563,0.35938 0.375,0.8125 0.10938,0.4375 0.10938,1.28125 z"
     fill-rule="nonzero"
     id="path25"
     transform="translate(-14.5,-50)" />
  <path
     stroke="#ffffff"
     stroke-width="3"
     stroke-linejoin="round"
     stroke-linecap="round"
     clip-path="url(#id_0)"
     d="m 130.17522,285.14438 q 0.75,0.53125 1.625,0.84375 l -0.75,1.42187 q -0.45313,-0.125 -0.89063,-0.375 -0.0937,-0.0469 -1.34375,-0.89062 -0.98437,0.4375 -2.18749,0.4375 -2.29688,0 -3.60938,-1.35938 -1.3125,-1.35937 -1.3125,-3.82812 0,-2.45313 1.3125,-3.8125 1.3125,-1.35938 3.5625,-1.35938 2.23437,0 3.53125,1.35938 1.3125,1.35937 1.3125,3.8125 0,1.29687 -0.375,2.28125 -0.26563,0.76562 -0.875,1.46875 z m -1.625,-1.14063 q 0.39062,-0.46875 0.57812,-1.10937 0.20313,-0.65625 0.20313,-1.5 0,-1.73438 -0.76563,-2.59375 -0.76562,-0.85938 -1.99999,-0.85938 -1.23438,0 -2.01563,0.875 -0.76562,0.85938 -0.76562,2.57813 0,1.76562 0.76562,2.64062 0.78125,0.85938 1.95313,0.85938 0.4375,0 0.82812,-0.14063 -0.60937,-0.40625 -1.25,-0.625 l 0.5625,-1.15625 q 1,0.34375 1.90625,1.03125 z m 6.39062,2.40625 h -1.92187 v -7.26562 h 1.78125 v 1.03125 q 0.46875,-0.71875 0.82812,-0.95313 0.35938,-0.23437 0.82813,-0.23437 0.65625,0 1.26562,0.35937 l -0.59375,1.67188 q -0.48437,-0.3125 -0.90625,-0.3125 -0.40625,0 -0.6875,0.23437 -0.26562,0.21875 -0.4375,0.79688 -0.15625,0.57812 -0.15625,2.42187 z m 3.71875,-3.73437 q 0,-0.95313 0.46875,-1.84375 0.46875,-0.90625 1.32813,-1.375 0.875,-0.46875 1.9375,-0.46875 1.65625,0 2.70312,1.07812 1.04688,1.0625 1.04688,2.6875 0,1.65625 -1.0625,2.75 -1.0625,1.07813 -2.67188,1.07813 -1,0 -1.90625,-0.45313 -0.90625,-0.45312 -1.375,-1.32812 -0.46875,-0.875 -0.46875,-2.125 z m 1.96875,0.10937 q 0,1.07813 0.51563,1.65625 0.51562,0.5625 1.26562,0.5625 0.75,0 1.25,-0.5625 0.51563,-0.57812 0.51563,-1.67187 0,-1.0625 -0.51563,-1.64063 -0.5,-0.57812 -1.25,-0.57812 -0.75,0 -1.26562,0.57812 -0.51563,0.57813 -0.51563,1.65625 z m 14.07813,3.625 h -1.92188 v -3.70312 q 0,-1.17188 -0.125,-1.51563 -0.125,-0.35937 -0.40625,-0.54687 -0.26562,-0.1875 -0.65625,-0.1875 -0.5,0 -0.90625,0.28125 -0.39062,0.26562 -0.54687,0.71875 -0.14063,0.45312 -0.14063,1.67187 V 286.41 h -1.92187 v -7.26562 h 1.79687 v 1.07812 q 0.9375,-1.23437 2.39063,-1.23437 0.625,0 1.15625,0.23437 0.53125,0.21875 0.79687,0.57813 0.26563,0.35937 0.375,0.8125 0.10938,0.4375 0.10938,1.28125 z m 1.95312,-3.73437 q 0,-0.95313 0.46875,-1.84375 0.46875,-0.90625 1.32813,-1.375 0.875,-0.46875 1.9375,-0.46875 1.65625,0 2.70312,1.07812 1.04688,1.0625 1.04688,2.6875 0,1.65625 -1.0625,2.75 -1.0625,1.07813 -2.67188,1.07813 -1,0 -1.90625,-0.45313 -0.90625,-0.45312 -1.375,-1.32812 -0.46875,-0.875 -0.46875,-2.125 z m 1.96875,0.10937 q 0,1.07813 0.51563,1.65625 0.51562,0.5625 1.26562,0.5625 0.75,0 1.25,-0.5625 0.51563,-0.57812 0.51563,-1.67187 0,-1.0625 -0.51563,-1.64063 -0.5,-0.57812 -1.25,-0.57812 -0.75,0 -1.26562,0.57812 -0.51563,0.57813 -0.51563,1.65625 z"
     fill-rule="nonzero"
     id="path26"
     transform="translate(-14.5,-46)" />
  <path
     fill="#1a1a1a"
     clip-path="url(#id_0)"
     d="m 130.17523,285.14438 q 0.75,0.53125 1.625,0.84375 l -0.75,1.42187 q -0.45313,-0.125 -0.89063,-0.375 -0.0937,-0.0469 -1.34374,-0.89062 -0.98439,0.4375 -2.18751,0.4375 -2.29688,0 -3.60938,-1.35938 -1.3125,-1.35937 -1.3125,-3.82812 0,-2.45313 1.3125,-3.8125 1.3125,-1.35938 3.5625,-1.35938 2.23439,0 3.53126,1.35938 1.3125,1.35937 1.3125,3.8125 0,1.29687 -0.375,2.28125 -0.26563,0.76562 -0.875,1.46875 z m -1.625,-1.14063 q 0.39063,-0.46875 0.57813,-1.10937 0.20312,-0.65625 0.20312,-1.5 0,-1.73438 -0.76562,-2.59375 -0.76564,-0.85938 -2.00001,-0.85938 -1.23438,0 -2.01563,0.875 -0.76562,0.85938 -0.76562,2.57813 0,1.76562 0.76562,2.64062 0.78125,0.85938 1.95313,0.85938 0.4375,0 0.82812,-0.14063 -0.60937,-0.40625 -1.25,-0.625 l 0.5625,-1.15625 q 1,0.34375 1.90626,1.03125 z m 6.39063,2.40625 h -1.92188 v -7.26562 h 1.78125 v 1.03125 q 0.46875,-0.71875 0.82813,-0.95313 0.35937,-0.23437 0.82812,-0.23437 0.65625,0 1.26562,0.35937 l -0.59374,1.67188 q -0.48438,-0.3125 -0.90626,-0.3125 -0.40624,0 -0.6875,0.23437 -0.26562,0.21875 -0.4375,0.79688 -0.15624,0.57812 -0.15624,2.42187 z m 3.71874,-3.73437 q 0,-0.95313 0.46876,-1.84375 0.46874,-0.90625 1.32812,-1.375 0.875,-0.46875 1.9375,-0.46875 1.65625,0 2.70312,1.07812 1.04688,1.0625 1.04688,2.6875 0,1.65625 -1.0625,2.75 -1.0625,1.07813 -2.67188,1.07813 -1,0 -1.90624,-0.45313 -0.90626,-0.45312 -1.375,-1.32812 -0.46876,-0.875 -0.46876,-2.125 z m 1.96876,0.10937 q 0,1.07813 0.51562,1.65625 0.51562,0.5625 1.26562,0.5625 0.75,0 1.25,-0.5625 0.51563,-0.57812 0.51563,-1.67187 0,-1.0625 -0.51563,-1.64063 -0.5,-0.57812 -1.25,-0.57812 -0.75,0 -1.26562,0.57812 -0.51562,0.57813 -0.51562,1.65625 z m 14.07812,3.625 h -1.92188 v -3.70312 q 0,-1.17188 -0.125,-1.51563 -0.125,-0.35937 -0.40624,-0.54687 -0.26563,-0.1875 -0.65626,-0.1875 -0.5,0 -0.90624,0.28125 -0.39063,0.26562 -0.54688,0.71875 -0.14062,0.45312 -0.14062,1.67187 V 286.41 h -1.92188 v -7.26562 h 1.79688 v 1.07812 q 0.9375,-1.23437 2.39062,-1.23437 0.625,0 1.15625,0.23437 0.53125,0.21875 0.79687,0.57813 0.26563,0.35937 0.375,0.8125 0.10938,0.4375 0.10938,1.28125 z m 1.95312,-3.73437 q 0,-0.95313 0.46876,-1.84375 0.46874,-0.90625 1.32812,-1.375 0.875,-0.46875 1.9375,-0.46875 1.65625,0 2.70312,1.07812 1.04688,1.0625 1.04688,2.6875 0,1.65625 -1.0625,2.75 -1.0625,1.07813 -2.67188,1.07813 -1,0 -1.90624,-0.45313 -0.90626,-0.45312 -1.375,-1.32812 -0.46876,-0.875 -0.46876,-2.125 z m 1.96876,0.10937 q 0,1.07813 0.51562,1.65625 0.51562,0.5625 1.26562,0.5625 0.75,0 1.25,-0.5625 0.51563,-0.57812 0.51563,-1.67187 0,-1.0625 -0.51563,-1.64063 -0.5,-0.57812 -1.25,-0.57812 -0.75,0 -1.26562,0.57812 -0.51562,0.57813 -0.51562,1.65625 z"
     fill-rule="nonzero"
     id="path27"
     transform="translate(-14.5,-46)"
     style="fill:#ff11a5;fill-opacity:1" />
  <path
     fill="#000000"
     d="m 241.69531,305.45 v -8.59374 h 1.15625 l 4.51562,6.75 v -6.75 h 1.09375 V 305.45 h -1.17187 l -4.51563,-6.75 v 6.75 z m 12.95312,0 v -0.92186 q -0.73437,1.0625 -1.98437,1.0625 -0.54688,0 -1.03125,-0.20314 -0.46875,-0.21874 -0.70313,-0.53124 -0.23437,-0.32812 -0.32812,-0.79686 -0.0625,-0.2969 -0.0625,-0.9844 v -3.84374 h 1.0625 v 3.45314 q 0,0.8125 0.0625,1.10936 0.0938,0.40624 0.40625,0.65624 0.32812,0.2344 0.8125,0.2344 0.46875,0 0.875,-0.2344 0.42187,-0.25 0.59375,-0.67186 0.1875,-0.42188 0.1875,-1.21874 v -3.32814 h 1.04687 V 305.45 Z m 2.92188,0 v -6.21874 h 0.9375 v 0.875 q 0.29687,-0.46876 0.78125,-0.73436 0.48437,-0.28126 1.10937,-0.28126 0.6875,0 1.125,0.28126 0.45313,0.28124 0.625,0.79686 0.75,-1.07812 1.92188,-1.07812 0.9375,0 1.42187,0.51562 0.5,0.5 0.5,1.57814 v 4.2656 h -1.04687 v -3.92186 q 0,-0.625 -0.10938,-0.90624 -0.0937,-0.28126 -0.35937,-0.45314 -0.26563,-0.17186 -0.64063,-0.17186 -0.65625,0 -1.09375,0.4375 -0.42187,0.4375 -0.42187,1.40624 V 305.45 h -1.0625 v -4.04686 q 0,-0.70314 -0.26563,-1.04688 -0.25,-0.35936 -0.82812,-0.35936 -0.45313,0 -0.82813,0.23436 -0.375,0.23438 -0.54687,0.6875 -0.17188,0.45314 -0.17188,1.29688 V 305.45 Z m 11.96875,0 h -0.98438 v -8.59374 h 1.0625 v 3.0625 q 0.67188,-0.82812 1.70313,-0.82812 0.57812,0 1.07812,0.23436 0.51563,0.21876 0.84375,0.64064 0.34375,0.42186 0.53125,1.01562 0.1875,0.59374 0.1875,1.26564 0,1.59374 -0.79687,2.46874 -0.79688,0.875 -1.89063,0.875 -1.10937,0 -1.73437,-0.92188 z m -0.0156,-3.15624 q 0,1.10938 0.3125,1.60938 0.5,0.8125 1.34375,0.8125 0.6875,0 1.1875,-0.59374 0.51562,-0.59376 0.51562,-1.7969 0,-1.21874 -0.48437,-1.79686 -0.48438,-0.57814 -1.17188,-0.57814 -0.6875,0 -1.20312,0.6094 -0.5,0.59374 -0.5,1.73436 z m 10.29687,1.15624 1.09375,0.125 q -0.25,0.95314 -0.95312,1.4844 -0.70313,0.53124 -1.78125,0.53124 -1.35938,0 -2.17188,-0.84374 -0.79687,-0.84376 -0.79687,-2.3594 0,-1.5625 0.8125,-2.42186 0.8125,-0.875 2.09375,-0.875 1.25,0 2.03125,0.84376 0.79687,0.84374 0.79687,2.3906 0,0.0938 0,0.28126 h -4.64062 q 0.0625,1.03124 0.57812,1.57814 0.51563,0.53124 1.29688,0.53124 0.57812,0 0.98437,-0.29688 0.42188,-0.3125 0.65625,-0.96876 z m -3.45312,-1.7031 h 3.46875 q -0.0625,-0.7969 -0.39063,-1.1875 -0.51562,-0.6094 -1.3125,-0.6094 -0.73437,0 -1.23437,0.4844 -0.48438,0.48436 -0.53125,1.3125 z m 6.1875,3.7031 v -6.21874 h 0.95312 v 0.9375 q 0.35938,-0.65626 0.65625,-0.85936 0.3125,-0.21876 0.6875,-0.21876 0.53125,0 1.07813,0.32812 l -0.35938,0.98438 q -0.39062,-0.23438 -0.76562,-0.23438 -0.35938,0 -0.64063,0.21874 -0.26562,0.20314 -0.375,0.57814 -0.1875,0.5625 -0.1875,1.21876 v 3.2656 z m 6.625,-3.10936 q 0,-1.73438 0.95312,-2.5625 0.79688,-0.6875 1.95313,-0.6875 1.28125,0 2.09375,0.84376 0.82812,0.8281 0.82812,2.3125 0,1.2031 -0.35937,1.8906 -0.35938,0.6875 -1.0625,1.07814 -0.6875,0.375 -1.5,0.375 -1.29688,0 -2.10938,-0.82814 -0.79687,-0.84374 -0.79687,-2.42186 z m 1.07812,0 q 0,1.1875 0.51563,1.78126 0.53125,0.59374 1.3125,0.59374 0.79687,0 1.3125,-0.59374 0.51562,-0.59376 0.51562,-1.8125 0,-1.15626 -0.53125,-1.75 -0.51562,-0.59376 -1.29687,-0.59376 -0.78125,0 -1.3125,0.59376 -0.51563,0.5781 -0.51563,1.78124 z m 6.5625,3.10936 v -5.40624 h -0.9375 v -0.8125 h 0.9375 v -0.67186 q 0,-0.625 0.10938,-0.9219 0.15625,-0.42186 0.53125,-0.67186 0.39062,-0.25 1.07812,-0.25 0.45313,0 0.98438,0.10936 l -0.15625,0.90626 q -0.32813,-0.0469 -0.625,-0.0469 -0.48438,0 -0.6875,0.2031 -0.1875,0.20314 -0.1875,0.76564 v 0.57812 h 1.21875 v 0.8125 h -1.21875 V 305.45 Z m 5.5,-2.7656 1.0625,-0.0938 q 0.0781,0.65626 0.35938,1.0625 0.28125,0.40626 0.85937,0.67186 0.59375,0.25 1.32813,0.25 0.64062,0 1.14062,-0.1875 0.5,-0.2031 0.73438,-0.53124 0.25,-0.34376 0.25,-0.73436 0,-0.40626 -0.23438,-0.70314 -0.23437,-0.3125 -0.76562,-0.51562 -0.35938,-0.14064 -1.54688,-0.42188 -1.17187,-0.28126 -1.64062,-0.53126 -0.625,-0.3281 -0.92188,-0.79686 -0.29687,-0.48438 -0.29687,-1.07814 0,-0.6406 0.35937,-1.2031 0.375,-0.57814 1.07813,-0.8594 0.71875,-0.29686 1.57812,-0.29686 0.95313,0 1.6875,0.3125 0.73438,0.29686 1.125,0.90626 0.39063,0.59374 0.42188,1.34374 l -1.09375,0.0781 q -0.0937,-0.8125 -0.60938,-1.21876 -0.5,-0.42186 -1.48437,-0.42186 -1.03125,0 -1.5,0.375 -0.46875,0.375 -0.46875,0.90626 0,0.46874 0.32812,0.7656 0.32813,0.2969 1.70313,0.6094 1.39062,0.3125 1.90625,0.54686 0.75,0.35938 1.10937,0.89064 0.35938,0.5156 0.35938,1.21874 0,0.6875 -0.39063,1.29686 -0.39062,0.59376 -1.125,0.9375 -0.73437,0.32814 -1.65625,0.32814 -1.17187,0 -1.96875,-0.32814 -0.78125,-0.34374 -1.23437,-1.03124 -0.4375,-0.6875 -0.45313,-1.54686 z m 7.85938,-0.34376 q 0,-1.73438 0.95312,-2.5625 0.79688,-0.6875 1.95313,-0.6875 1.28125,0 2.09375,0.84376 0.82812,0.8281 0.82812,2.3125 0,1.2031 -0.35937,1.8906 -0.35938,0.6875 -1.0625,1.07814 -0.6875,0.375 -1.5,0.375 -1.29688,0 -2.10938,-0.82814 -0.79687,-0.84374 -0.79687,-2.42186 z m 1.07812,0 q 0,1.1875 0.51563,1.78126 0.53125,0.59374 1.3125,0.59374 0.79687,0 1.3125,-0.59374 0.51562,-0.59376 0.51562,-1.8125 0,-1.15626 -0.53125,-1.75 -0.51562,-0.59376 -1.29687,-0.59376 -0.78125,0 -1.3125,0.59376 -0.51563,0.5781 -0.51563,1.78124 z m 10.3906,3.10936 v -0.92186 q -0.73437,1.0625 -1.98437,1.0625 -0.54688,0 -1.03125,-0.20314 -0.46875,-0.21874 -0.70313,-0.53124 -0.23437,-0.32812 -0.32812,-0.79686 -0.0625,-0.2969 -0.0625,-0.9844 v -3.84374 h 1.0625 v 3.45314 q 0,0.8125 0.0625,1.10936 0.0938,0.40624 0.40625,0.65624 0.32812,0.2344 0.8125,0.2344 0.46875,0 0.875,-0.2344 0.42187,-0.25 0.59375,-0.67186 0.1875,-0.42188 0.1875,-1.21874 v -3.32814 h 1.04687 V 305.45 Z m 2.90625,0 v -6.21874 h 0.95313 v 0.9375 q 0.35937,-0.65626 0.65625,-0.85936 0.3125,-0.21876 0.6875,-0.21876 0.53125,0 1.07812,0.32812 l -0.35937,0.98438 q -0.39063,-0.23438 -0.76563,-0.23438 -0.35937,0 -0.64062,0.21874 -0.26563,0.20314 -0.375,0.57814 -0.1875,0.5625 -0.1875,1.21876 v 3.2656 z m 8.07813,-2.28124 1.03125,0.14064 q -0.17188,1.0625 -0.875,1.67186 -0.70313,0.60938 -1.71875,0.60938 -1.28125,0 -2.0625,-0.82814 -0.76563,-0.84374 -0.76563,-2.40624 0,-1 0.32813,-1.75 0.34375,-0.76562 1.01562,-1.14062 0.6875,-0.375 1.5,-0.375 1,0 1.64063,0.51562 0.65625,0.5 0.84375,1.45314 l -1.03125,0.15624 q -0.14063,-0.625 -0.51563,-0.9375 -0.375,-0.32814 -0.90625,-0.32814 -0.79687,0 -1.29687,0.57814 -0.5,0.5625 -0.5,1.79686 0,1.26564 0.48437,1.82814 0.48438,0.5625 1.25,0.5625 0.625,0 1.03125,-0.375 0.42188,-0.375 0.54688,-1.17188 z m 6.1875,0.28124 1.09375,0.125 q -0.25,0.95314 -0.95313,1.4844 -0.70312,0.53124 -1.78125,0.53124 -1.35937,0 -2.17187,-0.84374 -0.79688,-0.84376 -0.79688,-2.3594 0,-1.5625 0.8125,-2.42186 0.8125,-0.875 2.09375,-0.875 1.25,0 2.03125,0.84376 0.79688,0.84374 0.79688,2.3906 0,0.0938 0,0.28126 h -4.64063 q 0.0625,1.03124 0.57813,1.57814 0.51562,0.53124 1.29687,0.53124 0.57813,0 0.98438,-0.29688 0.42187,-0.3125 0.65625,-0.96876 z m -3.45313,-1.7031 h 3.46875 q -0.0625,-0.7969 -0.39062,-1.1875 -0.51563,-0.6094 -1.3125,-0.6094 -0.73438,0 -1.23438,0.4844 -0.48437,0.48436 -0.53125,1.3125 z m 9.39063,3.7031 v -8.59374 h 5.79687 v 1.01564 h -4.65625 v 2.65624 h 4.03125 v 1.01562 h -4.03125 V 305.45 Z m 6.8125,-7.375 v -1.21874 h 1.0625 v 1.21874 z m 0,7.375 v -6.21874 h 1.0625 V 305.45 Z m 2.96875,0 v -8.59374 h 1.0625 V 305.45 Z m 7.28125,-2 1.09375,0.125 q -0.25,0.95314 -0.95313,1.4844 -0.70312,0.53124 -1.78125,0.53124 -1.35937,0 -2.17187,-0.84374 -0.79688,-0.84376 -0.79688,-2.3594 0,-1.5625 0.8125,-2.42186 0.8125,-0.875 2.09375,-0.875 1.25,0 2.03125,0.84376 0.79688,0.84374 0.79688,2.3906 0,0.0938 0,0.28126 h -4.64063 q 0.0625,1.03124 0.57813,1.57814 0.51562,0.53124 1.29687,0.53124 0.57813,0 0.98438,-0.29688 0.42187,-0.3125 0.65625,-0.96876 z m -3.45313,-1.7031 h 3.46875 q -0.0625,-0.7969 -0.39062,-1.1875 -0.51563,-0.6094 -1.3125,-0.6094 -0.73438,0 -1.23438,0.4844 -0.48437,0.48436 -0.53125,1.3125 z m 5.78125,1.84374 1.03125,-0.15624 q 0.0937,0.625 0.48438,0.9531 0.40625,0.32814 1.14062,0.32814 0.71875,0 1.0625,-0.28124 0.35938,-0.2969 0.35938,-0.70314 0,-0.35936 -0.3125,-0.5625 -0.21875,-0.14062 -1.07813,-0.35936 -1.15625,-0.2969 -1.60937,-0.5 -0.4375,-0.21876 -0.67188,-0.59376 -0.23437,-0.375 -0.23437,-0.84374 0,-0.40626 0.1875,-0.76564 0.1875,-0.35936 0.51562,-0.59376 0.25,-0.17186 0.67188,-0.29686 0.42187,-0.125 0.92187,-0.125 0.71875,0 1.26563,0.21876 0.5625,0.2031 0.82812,0.5625 0.26563,0.35936 0.35938,0.9531 l -1.03125,0.14064 q -0.0625,-0.46874 -0.40625,-0.73438 -0.32813,-0.28126 -0.95313,-0.28126 -0.71875,0 -1.03125,0.25 -0.3125,0.2344 -0.3125,0.5625 0,0.20314 0.125,0.3594 0.14063,0.17186 0.40625,0.28124 0.15625,0.0625 0.9375,0.26562 1.125,0.3125 1.5625,0.5 0.4375,0.1875 0.6875,0.54688 0.25,0.35936 0.25,0.90626 0,0.53124 -0.3125,1 -0.29687,0.4531 -0.875,0.71874 -0.57812,0.25 -1.3125,0.25 -1.21875,0 -1.85937,-0.5 -0.625,-0.51564 -0.79688,-1.5 z"
     fill-rule="nonzero"
     id="path28" />
  <path
     fill="#000000"
     d="m 33.050013,209.30833 h -8.59375 v -1.14062 h 7.578125 v -4.23438 h 1.015625 z m -7.375,-6.92187 h -1.21875 v -1.0625 h 1.21875 z m 7.375,0 h -6.21875 v -1.0625 h 6.21875 z m 0,-3 h -6.21875 v -0.9375 h 0.875 q -1.015625,-0.6875 -1.015625,-1.98438 0,-0.5625 0.203125,-1.03125 0.203125,-0.48437 0.53125,-0.71875 0.328125,-0.23437 0.765625,-0.32812 0.296875,-0.0469 1.03125,-0.0469 h 3.828125 v 1.04688 h -3.78125 q -0.65625,0 -0.96875,0.125 -0.3125,0.125 -0.5,0.4375 -0.203125,0.3125 -0.203125,0.73437 0,0.67188 0.4375,1.17188 0.421875,0.48437 1.609375,0.48437 h 3.40625 z m -2,-11.25 0.125,-1.09375 q 0.953125,0.25 1.484375,0.95312 0.53125,0.70313 0.53125,1.78125 0,1.35938 -0.84375,2.17188 -0.84375,0.79687 -2.359375,0.79687 -1.5625,0 -2.421875,-0.8125 -0.875,-0.8125 -0.875,-2.09375 0,-1.25 0.84375,-2.03125 0.84375,-0.79687 2.390625,-0.79687 0.09375,0 0.28125,0 v 4.64062 q 1.03125,-0.0625 1.578125,-0.57812 0.53125,-0.51563 0.53125,-1.29688 0,-0.57812 -0.296875,-0.98437 -0.3125,-0.42188 -0.96875,-0.65625 z m -1.703125,3.45312 v -3.46875 q -0.796875,0.0625 -1.1875,0.39063 -0.609375,0.51562 -0.609375,1.3125 0,0.73437 0.484375,1.23437 0.484375,0.48438 1.3125,0.53125 z m 1.84375,-5.78125 -0.15625,-1.03125 q 0.625,-0.0937 0.953125,-0.48437 0.328125,-0.40625 0.328125,-1.14063 0,-0.71875 -0.28125,-1.0625 -0.296875,-0.35937 -0.703125,-0.35937 -0.359375,0 -0.5625,0.3125 -0.140625,0.21875 -0.359375,1.07812 -0.296875,1.15625 -0.5,1.60938 -0.21875,0.4375 -0.59375,0.67187 -0.375,0.23438 -0.84375,0.23438 -0.40625,0 -0.765625,-0.1875 -0.359375,-0.1875 -0.59375,-0.51563 -0.171875,-0.25 -0.296875,-0.67187 -0.125,-0.42188 -0.125,-0.92188 0,-0.71875 0.21875,-1.26562 0.203125,-0.5625 0.5625,-0.82813 0.359375,-0.26562 0.953125,-0.35937 l 0.140625,1.03125 q -0.46875,0.0625 -0.734375,0.40625 -0.28125,0.32812 -0.28125,0.95312 0,0.71875 0.25,1.03125 0.234375,0.3125 0.5625,0.3125 0.203125,0 0.359375,-0.125 0.171875,-0.14062 0.28125,-0.40625 0.0625,-0.15625 0.265625,-0.9375 0.3125,-1.125 0.5,-1.5625 0.1875,-0.4375 0.546875,-0.6875 0.359375,-0.25 0.90625,-0.25 0.53125,0 1,0.3125 0.453125,0.29688 0.71875,0.875 0.25,0.57813 0.25,1.3125 0,1.21875 -0.5,1.85938 -0.515625,0.625 -1.5,0.79687 z m -1.25,-10.03125 q -1.734375,0 -2.5625,-0.95312 -0.6875,-0.79688 -0.6875,-1.95313 0,-1.28125 0.84375,-2.09375 0.828125,-0.82812 2.3125,-0.82812 1.203125,0 1.890625,0.35937 0.6875,0.35938 1.078125,1.0625 0.375,0.6875 0.375,1.5 0,1.29688 -0.828125,2.10938 -0.84375,0.79687 -2.421875,0.79687 z m 0,-1.07812 q 1.1875,0 1.78125,-0.51563 0.59375,-0.53125 0.59375,-1.3125 0,-0.79687 -0.59375,-1.3125 -0.59375,-0.51562 -1.8125,-0.51562 -1.15625,0 -1.75,0.53125 -0.59375,0.51562 -0.59375,1.29687 0,0.78125 0.59375,1.3125 0.578125,0.51563 1.78125,0.51563 z m 3.109375,-6.5625 h -5.40625 v 0.9375 h -0.8125 v -0.9375 h -0.671875 q -0.625,0 -0.921875,-0.10938 -0.421875,-0.15625 -0.671875,-0.53125 -0.25,-0.39062 -0.25,-1.07812 0,-0.45313 0.109375,-0.98438 l 0.90625,0.15625 q -0.04687,0.32813 -0.04687,0.625 0,0.48438 0.203125,0.6875 0.203125,0.1875 0.765625,0.1875 h 0.578125 v -1.21875 h 0.8125 v 1.21875 h 5.40625 z m -2.765625,-5.5 -0.09375,-1.0625 q 0.65625,-0.0781 1.0625,-0.35938 0.40625,-0.28125 0.671875,-0.85937 0.25,-0.59375 0.25,-1.32813 0,-0.64062 -0.1875,-1.14062 -0.203125,-0.5 -0.53125,-0.73438 -0.34375,-0.25 -0.734375,-0.25 -0.40625,0 -0.703125,0.23438 -0.3125,0.23437 -0.515625,0.76562 -0.140625,0.35938 -0.421875,1.54688 -0.28125,1.17187 -0.53125,1.64062 -0.328125,0.625 -0.796875,0.92188 -0.484375,0.29687 -1.078125,0.29687 -0.640625,0 -1.203125,-0.35937 -0.578125,-0.375 -0.859375,-1.07813 -0.296875,-0.71875 -0.296875,-1.57812 0,-0.95313 0.3125,-1.6875 0.296875,-0.73438 0.90625,-1.125 0.59375,-0.39063 1.34375,-0.42188 l 0.07813,1.09375 q -0.8125,0.0937 -1.21875,0.60938 -0.421875,0.5 -0.421875,1.48437 0,1.03125 0.375,1.5 0.375,0.46875 0.90625,0.46875 0.46875,0 0.765625,-0.32812 0.296875,-0.32813 0.609375,-1.70313 0.3125,-1.39062 0.546875,-1.90625 0.359375,-0.75 0.890625,-1.10937 0.515625,-0.35938 1.21875,-0.35938 0.6875,0 1.296875,0.39063 0.59375,0.39062 0.9375,1.125 0.328125,0.73437 0.328125,1.65625 0,1.17187 -0.328125,1.96875 -0.34375,0.78125 -1.03125,1.23437 -0.6875,0.4375 -1.546875,0.45313 z m -0.34375,-7.85938 q -1.734375,0 -2.5625,-0.95312 -0.6875,-0.79688 -0.6875,-1.95313 0,-1.28125 0.84375,-2.09375 0.828125,-0.82812 2.3125,-0.82812 1.203125,0 1.890625,0.35937 0.6875,0.35938 1.078125,1.0625 0.375,0.6875 0.375,1.5 0,1.29688 -0.828125,2.10938 -0.84375,0.79687 -2.421875,0.79687 z m 0,-1.07812 q 1.1875,0 1.78125,-0.51563 0.59375,-0.53125 0.59375,-1.3125 0,-0.79687 -0.59375,-1.3125 -0.59375,-0.51562 -1.8125,-0.51562 -1.15625,0 -1.75,0.53125 -0.59375,0.51562 -0.59375,1.29687 0,0.78125 0.59375,1.3125 0.578125,0.51563 1.78125,0.51563 z m 3.109375,-10.39063 h -0.921875 q 1.0625,0.73438 1.0625,1.98438 0,0.54687 -0.203125,1.03125 -0.21875,0.46875 -0.53125,0.70312 -0.328125,0.23438 -0.796875,0.32813 -0.296875,0.0625 -0.984375,0.0625 h -3.84375 v -1.0625 h 3.453125 q 0.8125,0 1.109375,-0.0625 0.40625,-0.0937 0.65625,-0.40625 0.234375,-0.32813 0.234375,-0.8125 0,-0.46875 -0.234375,-0.875 -0.25,-0.42188 -0.671875,-0.59375 -0.421875,-0.1875 -1.21875,-0.1875 h -3.328125 v -1.04688 h 6.21875 z m 0,-2.90625 h -6.21875 v -0.95312 h 0.9375 q -0.65625,-0.35938 -0.859375,-0.65625 -0.21875,-0.3125 -0.21875,-0.6875 0,-0.53125 0.328125,-1.07813 l 0.984375,0.35938 q -0.234375,0.39062 -0.234375,0.76562 0,0.35938 0.21875,0.64063 0.203125,0.26562 0.578125,0.375 0.5625,0.1875 1.21875,0.1875 h 3.265625 z m -2.28125,-8.07812 0.140625,-1.03125 q 1.0625,0.17187 1.671875,0.875 0.609375,0.70312 0.609375,1.71875 0,1.28125 -0.828125,2.0625 -0.84375,0.76562 -2.40625,0.76562 -1,0 -1.75,-0.32812 -0.765625,-0.34375 -1.140625,-1.01563 -0.375,-0.6875 -0.375,-1.5 0,-1 0.515625,-1.64062 0.5,-0.65625 1.453125,-0.84375 l 0.15625,1.03125 q -0.625,0.14062 -0.9375,0.51562 -0.328125,0.375 -0.328125,0.90625 0,0.79688 0.578125,1.29688 0.5625,0.5 1.796875,0.5 1.265625,0 1.828125,-0.48438 0.5625,-0.48437 0.5625,-1.25 0,-0.625 -0.375,-1.03125 -0.375,-0.42187 -1.171875,-0.54687 z m 0.28125,-6.1875 0.125,-1.09375 q 0.953125,0.25 1.484375,0.95312 0.53125,0.70313 0.53125,1.78125 0,1.35938 -0.84375,2.17188 -0.84375,0.79687 -2.359375,0.79687 -1.5625,0 -2.421875,-0.8125 -0.875,-0.8125 -0.875,-2.09375 0,-1.25 0.84375,-2.03125 0.84375,-0.79687 2.390625,-0.79687 0.09375,0 0.28125,0 v 4.64062 q 1.03125,-0.0625 1.578125,-0.57812 0.53125,-0.51563 0.53125,-1.29688 0,-0.57812 -0.296875,-0.98437 -0.3125,-0.42188 -0.96875,-0.65625 z m -1.703125,3.45312 v -3.46875 q -0.796875,0.0625 -1.1875,0.39063 -0.609375,0.51562 -0.609375,1.3125 0,0.73437 0.484375,1.23437 0.484375,0.48438 1.3125,0.53125 z m 0.6875,-15.46875 0.296875,-1.125 q 1.390625,0.35938 2.125,1.28125 0.734375,0.92188 0.734375,2.26563 0,1.39062 -0.5625,2.26562 -0.5625,0.875 -1.625,1.32813 -1.078125,0.45312 -2.3125,0.45312 -1.34375,0 -2.34375,-0.51562 -1,-0.51563 -1.515625,-1.45313 -0.515625,-0.95312 -0.515625,-2.09375 0,-1.28125 0.65625,-2.15625 0.65625,-0.89062 1.84375,-1.23437 l 0.265625,1.125 q -0.9375,0.29687 -1.359375,0.875 -0.4375,0.5625 -0.4375,1.42187 0,0.98438 0.484375,1.65625 0.46875,0.65625 1.265625,0.9375 0.796875,0.26563 1.65625,0.26563 1.09375,0 1.90625,-0.3125 0.8125,-0.32813 1.21875,-1 0.40625,-0.67188 0.40625,-1.46875 0,-0.95313 -0.546875,-1.60938 -0.546875,-0.67187 -1.640625,-0.90625 z m -0.09375,-2.34375 q -1.734375,0 -2.5625,-0.95312 -0.6875,-0.79688 -0.6875,-1.95313 0,-1.28125 0.84375,-2.09375 0.828125,-0.82812 2.3125,-0.82812 1.203125,0 1.890625,0.35937 0.6875,0.35938 1.078125,1.0625 0.375,0.6875 0.375,1.5 0,1.29688 -0.828125,2.10938 -0.84375,0.79687 -2.421875,0.79687 z m 0,-1.07812 q 1.1875,0 1.78125,-0.51563 0.59375,-0.53125 0.59375,-1.3125 0,-0.79687 -0.59375,-1.3125 -0.59375,-0.51562 -1.8125,-0.51562 -1.15625,0 -1.75,0.53125 -0.59375,0.51562 -0.59375,1.29687 0,0.78125 0.59375,1.3125 0.578125,0.51563 1.78125,0.51563 z m 3.109375,-10.34375 h -0.78125 q 0.921875,0.59375 0.921875,1.73437 0,0.75 -0.40625,1.375 -0.421875,0.625 -1.15625,0.96875 -0.734375,0.34375 -1.6875,0.34375 -0.921875,0 -1.6875,-0.3125 -0.765625,-0.3125 -1.15625,-0.9375 -0.40625,-0.625 -0.40625,-1.39062 0,-0.5625 0.234375,-1 0.234375,-0.4375 0.609375,-0.71875 h -3.078125 v -1.04688 h 8.59375 z m -3.109375,3.32812 q 1.203125,0 1.796875,-0.5 0.578125,-0.5 0.578125,-1.1875 0,-0.6875 -0.5625,-1.17187 -0.5625,-0.48438 -1.71875,-0.48438 -1.28125,0 -1.875,0.5 -0.59375,0.48438 -0.59375,1.20313 0,0.70312 0.578125,1.17187 0.5625,0.46875 1.796875,0.46875 z m 1.109375,-10.54687 0.125,-1.09375 q 0.953125,0.25 1.484375,0.95312 0.53125,0.70313 0.53125,1.78125 0,1.35938 -0.84375,2.17188 -0.84375,0.79687 -2.359375,0.79687 -1.5625,0 -2.421875,-0.8125 -0.875,-0.8125 -0.875,-2.09375 0,-1.25 0.84375,-2.03125 0.84375,-0.79687 2.390625,-0.79687 0.09375,0 0.28125,0 v 4.64062 q 1.03125,-0.0625 1.578125,-0.57812 0.53125,-0.51563 0.53125,-1.29688 0,-0.57812 -0.296875,-0.98437 -0.3125,-0.42188 -0.96875,-0.65625 z m -1.703125,3.45312 v -3.46875 q -0.796875,0.0625 -1.1875,0.39063 -0.609375,0.51562 -0.609375,1.3125 0,0.73437 0.484375,1.23437 0.484375,0.48438 1.3125,0.53125 z"
     fill-rule="nonzero"
     id="path29" />
  <path
     fill="#000000"
     d="m 60.58125,270.2469 1.64063,-0.1719 q 0.07812,0.5469 0.42187,0.875 0.34375,0.32814 0.79688,0.32814 0.51562,0 0.875,-0.42188 0.35937,-0.42186 0.35937,-1.26562 0,-0.78124 -0.35937,-1.17188 -0.35938,-0.40626 -0.92188,-0.40626 -0.71875,0 -1.28125,0.625 l -1.32812,-0.1875 0.84375,-4.46874 h 4.35937 v 1.53124 h -3.10937 l -0.26563,1.46876 Q 63.175,266.7 63.7375,266.7 q 1.09375,0 1.85938,0.7969 0.76562,0.79686 0.76562,2.0625 0,1.0625 -0.60937,1.90624 -0.84375,1.125 -2.32813,1.125 -1.1875,0 -1.9375,-0.625 -0.75,-0.64064 -0.90625,-1.71874 z m 9.76563,-6.4219 q 1.25,0 1.95312,0.89064 0.82813,1.04686 0.82813,3.5 0,2.4375 -0.84375,3.5 -0.6875,0.875 -1.9375,0.875 -1.25,0 -2.03125,-0.95314 Q 67.55,270.66876 67.55,268.2 q 0,-2.4375 0.84375,-3.5 0.70313,-0.875 1.95313,-0.875 z m 0,1.3594 q -0.29688,0 -0.53125,0.2031 -0.23438,0.1875 -0.375,0.6719 -0.15625,0.6406 -0.15625,2.15624 0,1.51562 0.14062,2.07812 0.15625,0.5625 0.39063,0.75 0.23437,0.1875 0.53125,0.1875 0.29687,0 0.53125,-0.1875 0.23437,-0.1875 0.35937,-0.6875 0.17188,-0.625 0.17188,-2.14062 0,-1.51564 -0.15625,-2.07814 -0.14063,-0.5625 -0.375,-0.75 -0.23438,-0.2031 -0.53125,-0.2031 z m 7,-1.3594 q 1.25,0 1.95312,0.89064 0.82813,1.04686 0.82813,3.5 0,2.4375 -0.84375,3.5 -0.6875,0.875 -1.9375,0.875 -1.25,0 -2.03125,-0.95314 Q 74.55,270.66876 74.55,268.2 q 0,-2.4375 0.84375,-3.5 0.70313,-0.875 1.95313,-0.875 z m 0,1.3594 q -0.29688,0 -0.53125,0.2031 -0.23438,0.1875 -0.375,0.6719 -0.15625,0.6406 -0.15625,2.15624 0,1.51562 0.14062,2.07812 0.15625,0.5625 0.39063,0.75 0.23437,0.1875 0.53125,0.1875 0.29687,0 0.53125,-0.1875 0.23437,-0.1875 0.35937,-0.6875 0.17188,-0.625 0.17188,-2.14062 0,-1.51564 -0.15625,-2.07814 -0.14063,-0.5625 -0.375,-0.75 -0.23438,-0.2031 -0.53125,-0.2031 z"
     fill-rule="nonzero"
     id="path30" />
  <path
     fill="#000000"
     d="m 54.76875,242.2472 h -1.64062 v -6.20313 q -0.90625,0.84375 -2.125,1.25 v -1.5 q 0.64062,-0.20313 1.39062,-0.79687 0.76563,-0.59376 1.04688,-1.375 h 1.32812 z m 3.10938,-1.64063 h 1.64062 v 1.17187 q 0,0.71876 -0.125,1.125 -0.125,0.42188 -0.46875,0.75 -0.34375,0.32813 -0.85937,0.51563 l -0.32813,-0.6875 q 0.5,-0.15625 0.70313,-0.45313 0.21875,-0.28124 0.23437,-0.78124 h -0.79687 z m 5.46875,-6.98437 q 1.25,0 1.95312,0.89062 0.82813,1.04688 0.82813,3.5 0,2.4375 -0.84375,3.5 -0.6875,0.875 -1.9375,0.875 -1.25,0 -2.03125,-0.95312 -0.76563,-0.96876 -0.76563,-3.4375 0,-2.4375 0.84375,-3.5 0.70313,-0.875 1.95313,-0.875 z m 0,1.35937 q -0.29688,0 -0.53125,0.20313 -0.23438,0.1875 -0.375,0.67187 -0.15625,0.64063 -0.15625,2.15625 0,1.51562 0.14062,2.07812 0.15625,0.5625 0.39063,0.75 0.23437,0.1875 0.53125,0.1875 0.29687,0 0.53125,-0.1875 0.23437,-0.1875 0.35937,-0.6875 0.17188,-0.625 0.17188,-2.14062 0,-1.51562 -0.15625,-2.07812 -0.14063,-0.5625 -0.375,-0.75 -0.23438,-0.20313 -0.53125,-0.20313 z m 7,-1.35937 q 1.25,0 1.95312,0.89062 0.82813,1.04688 0.82813,3.5 0,2.4375 -0.84375,3.5 -0.6875,0.875 -1.9375,0.875 -1.25,0 -2.03125,-0.95312 -0.76563,-0.96876 -0.76563,-3.4375 0,-2.4375 0.84375,-3.5 0.70313,-0.875 1.95313,-0.875 z m 0,1.35937 q -0.29688,0 -0.53125,0.20313 -0.23438,0.1875 -0.375,0.67187 -0.15625,0.64063 -0.15625,2.15625 0,1.51562 0.14062,2.07812 0.15625,0.5625 0.39063,0.75 0.23437,0.1875 0.53125,0.1875 0.29687,0 0.53125,-0.1875 0.23437,-0.1875 0.35937,-0.6875 0.17188,-0.625 0.17188,-2.14062 0,-1.51562 -0.15625,-2.07812 -0.14063,-0.5625 -0.375,-0.75 -0.23438,-0.20313 -0.53125,-0.20313 z m 7,-1.35937 q 1.25,0 1.95312,0.89062 0.82813,1.04688 0.82813,3.5 0,2.4375 -0.84375,3.5 -0.6875,0.875 -1.9375,0.875 -1.25,0 -2.03125,-0.95312 -0.76563,-0.96876 -0.76563,-3.4375 0,-2.4375 0.84375,-3.5 0.70313,-0.875 1.95313,-0.875 z m 0,1.35937 q -0.29688,0 -0.53125,0.20313 -0.23438,0.1875 -0.375,0.67187 -0.15625,0.64063 -0.15625,2.15625 0,1.51562 0.14062,2.07812 0.15625,0.5625 0.39063,0.75 0.23437,0.1875 0.53125,0.1875 0.29687,0 0.53125,-0.1875 0.23437,-0.1875 0.35937,-0.6875 0.17188,-0.625 0.17188,-2.14062 0,-1.51562 -0.15625,-2.07812 -0.14063,-0.5625 -0.375,-0.75 -0.23438,-0.20313 -0.53125,-0.20313 z"
     fill-rule="nonzero"
     id="path31" />
  <path
     fill="#000000"
     d="m 50.58125,169.91536 1.64063,-0.17188 q 0.07812,0.54688 0.42187,0.875 0.34375,0.32813 0.79688,0.32813 0.51562,0 0.875,-0.42188 0.35937,-0.42187 0.35937,-1.26562 0,-0.78125 -0.35937,-1.17188 -0.35938,-0.40625 -0.92188,-0.40625 -0.71875,0 -1.28125,0.625 l -1.32812,-0.1875 0.84375,-4.46875 h 4.35937 v 1.53125 h -3.10937 l -0.26563,1.46875 q 0.5625,-0.28125 1.125,-0.28125 1.09375,0 1.85938,0.79688 0.76562,0.79687 0.76562,2.0625 0,1.0625 -0.60937,1.90625 -0.84375,1.125 -2.32813,1.125 -1.1875,0 -1.9375,-0.625 -0.75,-0.64063 -0.90625,-1.71875 z m 7.29688,0.5625 h 1.64062 v 1.17187 q 0,0.71875 -0.125,1.125 -0.125,0.42188 -0.46875,0.75 -0.34375,0.32813 -0.85937,0.51563 l -0.32813,-0.6875 q 0.5,-0.15625 0.70313,-0.45313 0.21875,-0.28125 0.23437,-0.78125 h -0.79687 z m 5.46875,-6.98438 q 1.25,0 1.95312,0.89063 0.82813,1.04687 0.82813,3.5 0,2.4375 -0.84375,3.5 -0.6875,0.875 -1.9375,0.875 -1.25,0 -2.03125,-0.95313 -0.76563,-0.96875 -0.76563,-3.4375 0,-2.4375 0.84375,-3.5 0.70313,-0.875 1.95313,-0.875 z m 0,1.35938 q -0.29688,0 -0.53125,0.20312 -0.23438,0.1875 -0.375,0.67188 -0.15625,0.64062 -0.15625,2.15625 0,1.51562 0.14062,2.07812 0.15625,0.5625 0.39063,0.75 0.23437,0.1875 0.53125,0.1875 0.29687,0 0.53125,-0.1875 0.23437,-0.1875 0.35937,-0.6875 0.17188,-0.625 0.17188,-2.14062 0,-1.51563 -0.15625,-2.07813 -0.14063,-0.5625 -0.375,-0.75 -0.23438,-0.20312 -0.53125,-0.20312 z m 7,-1.35938 q 1.25,0 1.95312,0.89063 0.82813,1.04687 0.82813,3.5 0,2.4375 -0.84375,3.5 -0.6875,0.875 -1.9375,0.875 -1.25,0 -2.03125,-0.95313 -0.76563,-0.96875 -0.76563,-3.4375 0,-2.4375 0.84375,-3.5 0.70313,-0.875 1.95313,-0.875 z m 0,1.35938 q -0.29688,0 -0.53125,0.20312 -0.23438,0.1875 -0.375,0.67188 -0.15625,0.64062 -0.15625,2.15625 0,1.51562 0.14062,2.07812 0.15625,0.5625 0.39063,0.75 0.23437,0.1875 0.53125,0.1875 0.29687,0 0.53125,-0.1875 0.23437,-0.1875 0.35937,-0.6875 0.17188,-0.625 0.17188,-2.14062 0,-1.51563 -0.15625,-2.07813 -0.14063,-0.5625 -0.375,-0.75 -0.23438,-0.20312 -0.53125,-0.20312 z m 7,-1.35938 q 1.25,0 1.95312,0.89063 0.82813,1.04687 0.82813,3.5 0,2.4375 -0.84375,3.5 -0.6875,0.875 -1.9375,0.875 -1.25,0 -2.03125,-0.95313 -0.76563,-0.96875 -0.76563,-3.4375 0,-2.4375 0.84375,-3.5 0.70313,-0.875 1.95313,-0.875 z m 0,1.35938 q -0.29688,0 -0.53125,0.20312 -0.23438,0.1875 -0.375,0.67188 -0.15625,0.64062 -0.15625,2.15625 0,1.51562 0.14062,2.07812 0.15625,0.5625 0.39063,0.75 0.23437,0.1875 0.53125,0.1875 0.29687,0 0.53125,-0.1875 0.23437,-0.1875 0.35937,-0.6875 0.17188,-0.625 0.17188,-2.14062 0,-1.51563 -0.15625,-2.07813 -0.14063,-0.5625 -0.375,-0.75 -0.23438,-0.20312 -0.53125,-0.20312 z"
     fill-rule="nonzero"
     id="path32" />
  <path
     fill="#000000"
     d="m 47.76875,141.91568 h -1.640626 v -6.20313 q -0.90625,0.84375 -2.125,1.25 v -1.5 q 0.640626,-0.20312 1.390626,-0.79687 0.765624,-0.59375 1.046874,-1.375 h 1.328126 z m 5.57813,-8.625 q 1.25,0 1.95312,0.89062 0.82813,1.04688 0.82813,3.5 0,2.4375 -0.84375,3.5 -0.6875,0.875 -1.9375,0.875 -1.25,0 -2.03125,-0.95312 -0.76563,-0.96875 -0.76563,-3.4375 0,-2.4375 0.84375,-3.5 0.70313,-0.875 1.95313,-0.875 z m 0,1.35937 q -0.29688,0 -0.53125,0.20313 -0.23438,0.1875 -0.375,0.67187 -0.15625,0.64063 -0.15625,2.15625 0,1.51563 0.14062,2.07813 0.15625,0.5625 0.39063,0.75 0.23437,0.1875 0.53125,0.1875 0.29687,0 0.53125,-0.1875 0.23437,-0.1875 0.35937,-0.6875 0.17188,-0.625 0.17188,-2.14063 0,-1.51562 -0.15625,-2.07812 -0.14063,-0.5625 -0.375,-0.75 -0.23438,-0.20313 -0.53125,-0.20313 z m 4.53125,5.625 h 1.64062 v 1.17188 q 0,0.71875 -0.125,1.125 -0.125,0.42187 -0.46875,0.75 -0.34375,0.32812 -0.85937,0.51562 l -0.32813,-0.6875 q 0.5,-0.15625 0.70313,-0.45312 0.21875,-0.28125 0.23437,-0.78125 h -0.79687 z m 5.46875,-6.98437 q 1.25,0 1.95312,0.89062 0.82813,1.04688 0.82813,3.5 0,2.4375 -0.84375,3.5 -0.6875,0.875 -1.9375,0.875 -1.25,0 -2.03125,-0.95312 -0.76563,-0.96875 -0.76563,-3.4375 0,-2.4375 0.84375,-3.5 0.70313,-0.875 1.95313,-0.875 z m 0,1.35937 q -0.29688,0 -0.53125,0.20313 -0.23438,0.1875 -0.375,0.67187 -0.15625,0.64063 -0.15625,2.15625 0,1.51563 0.14062,2.07813 0.15625,0.5625 0.39063,0.75 0.23437,0.1875 0.53125,0.1875 0.29687,0 0.53125,-0.1875 0.23437,-0.1875 0.35937,-0.6875 0.17188,-0.625 0.17188,-2.14063 0,-1.51562 -0.15625,-2.07812 -0.14063,-0.5625 -0.375,-0.75 -0.23438,-0.20313 -0.53125,-0.20313 z m 7,-1.35937 q 1.25,0 1.95312,0.89062 0.82813,1.04688 0.82813,3.5 0,2.4375 -0.84375,3.5 -0.6875,0.875 -1.9375,0.875 -1.25,0 -2.03125,-0.95312 -0.76563,-0.96875 -0.76563,-3.4375 0,-2.4375 0.84375,-3.5 0.70313,-0.875 1.95313,-0.875 z m 0,1.35937 q -0.29688,0 -0.53125,0.20313 -0.23438,0.1875 -0.375,0.67187 -0.15625,0.64063 -0.15625,2.15625 0,1.51563 0.14062,2.07813 0.15625,0.5625 0.39063,0.75 0.23437,0.1875 0.53125,0.1875 0.29687,0 0.53125,-0.1875 0.23437,-0.1875 0.35937,-0.6875 0.17188,-0.625 0.17188,-2.14063 0,-1.51562 -0.15625,-2.07812 -0.14063,-0.5625 -0.375,-0.75 -0.23438,-0.20313 -0.53125,-0.20313 z m 7,-1.35937 q 1.25,0 1.95312,0.89062 0.82813,1.04688 0.82813,3.5 0,2.4375 -0.84375,3.5 -0.6875,0.875 -1.9375,0.875 -1.25,0 -2.03125,-0.95312 -0.76563,-0.96875 -0.76563,-3.4375 0,-2.4375 0.84375,-3.5 0.70313,-0.875 1.95313,-0.875 z m 0,1.35937 q -0.29688,0 -0.53125,0.20313 -0.23438,0.1875 -0.375,0.67187 -0.15625,0.64063 -0.15625,2.15625 0,1.51563 0.14062,2.07813 0.15625,0.5625 0.39063,0.75 0.23437,0.1875 0.53125,0.1875 0.29687,0 0.53125,-0.1875 0.23437,-0.1875 0.35937,-0.6875 0.17188,-0.625 0.17188,-2.14063 0,-1.51562 -0.15625,-2.07812 -0.14063,-0.5625 -0.375,-0.75 -0.23438,-0.20313 -0.53125,-0.20313 z"
     fill-rule="nonzero"
     id="path33" />
  <path
     fill="#000000"
     d="m 43.58125,69.58384 1.640624,-0.17188 q 0.07813,0.54688 0.421876,0.875 0.34375,0.32813 0.796874,0.32813 0.515626,0 0.875,-0.42188 0.359376,-0.42187 0.359376,-1.26562 0,-0.78125 -0.359376,-1.171876 -0.359374,-0.40625 -0.921874,-0.40625 -0.71875,0 -1.28125,0.625 l -1.328126,-0.1875 0.84375,-4.46875 H 48.9875 v 1.53125 h -3.109376 l -0.265624,1.46875 q 0.5625,-0.28125 1.125,-0.28125 1.09375,0 1.859374,0.796876 0.765626,0.796874 0.765626,2.0625 0,1.0625 -0.609376,1.90625 -0.84375,1.125 -2.328124,1.125 -1.1875,0 -1.9375,-0.625 -0.75,-0.64063 -0.90625,-1.71875 z m 9.76563,-6.421876 q 1.25,0 1.95312,0.890626 0.82813,1.046874 0.82813,3.5 0,2.4375 -0.84375,3.5 -0.6875,0.875 -1.9375,0.875 -1.25,0 -2.03125,-0.95313 Q 50.55,70.00571 50.55,67.536964 q 0,-2.4375 0.84375,-3.5 0.70313,-0.875 1.95313,-0.875 z m 0,1.359376 q -0.29688,0 -0.53125,0.203124 -0.23438,0.1875 -0.375,0.671876 -0.15625,0.640624 -0.15625,2.15625 0,1.51562 0.14062,2.07812 0.15625,0.5625 0.39063,0.75 0.23437,0.1875 0.53125,0.1875 0.29687,0 0.53125,-0.1875 0.23437,-0.1875 0.35937,-0.6875 0.17188,-0.625 0.17188,-2.14062 0,-1.515626 -0.15625,-2.078126 -0.14063,-0.5625 -0.375,-0.75 -0.23438,-0.203124 -0.53125,-0.203124 z m 4.53125,5.625 h 1.64062 v 1.17187 q 0,0.71875 -0.125,1.125 -0.125,0.42188 -0.46875,0.75 -0.34375,0.32813 -0.85937,0.51563 l -0.32813,-0.6875 q 0.5,-0.15625 0.70313,-0.45313 0.21875,-0.28125 0.23437,-0.78125 h -0.79687 z m 5.46875,-6.984376 q 1.25,0 1.95312,0.890626 0.82813,1.046874 0.82813,3.5 0,2.4375 -0.84375,3.5 -0.6875,0.875 -1.9375,0.875 -1.25,0 -2.03125,-0.95313 Q 60.55,70.00571 60.55,67.536964 q 0,-2.4375 0.84375,-3.5 0.70313,-0.875 1.95313,-0.875 z m 0,1.359376 q -0.29688,0 -0.53125,0.203124 -0.23438,0.1875 -0.375,0.671876 -0.15625,0.640624 -0.15625,2.15625 0,1.51562 0.14062,2.07812 0.15625,0.5625 0.39063,0.75 0.23437,0.1875 0.53125,0.1875 0.29687,0 0.53125,-0.1875 0.23437,-0.1875 0.35937,-0.6875 0.17188,-0.625 0.17188,-2.14062 0,-1.515626 -0.15625,-2.078126 -0.14063,-0.5625 -0.375,-0.75 -0.23438,-0.203124 -0.53125,-0.203124 z m 7,-1.359376 q 1.25,0 1.95312,0.890626 0.82813,1.046874 0.82813,3.5 0,2.4375 -0.84375,3.5 -0.6875,0.875 -1.9375,0.875 -1.25,0 -2.03125,-0.95313 Q 67.55,70.00571 67.55,67.536964 q 0,-2.4375 0.84375,-3.5 0.70313,-0.875 1.95313,-0.875 z m 0,1.359376 q -0.29688,0 -0.53125,0.203124 -0.23438,0.1875 -0.375,0.671876 -0.15625,0.640624 -0.15625,2.15625 0,1.51562 0.14062,2.07812 0.15625,0.5625 0.39063,0.75 0.23437,0.1875 0.53125,0.1875 0.29687,0 0.53125,-0.1875 0.23437,-0.1875 0.35937,-0.6875 0.17188,-0.625 0.17188,-2.14062 0,-1.515626 -0.15625,-2.078126 -0.14063,-0.5625 -0.375,-0.75 -0.23438,-0.203124 -0.53125,-0.203124 z m 7,-1.359376 q 1.25,0 1.95312,0.890626 0.82813,1.046874 0.82813,3.5 0,2.4375 -0.84375,3.5 -0.6875,0.875 -1.9375,0.875 -1.25,0 -2.03125,-0.95313 Q 74.55,70.00571 74.55,67.536964 q 0,-2.4375 0.84375,-3.5 0.70313,-0.875 1.95313,-0.875 z m 0,1.359376 q -0.29688,0 -0.53125,0.203124 -0.23438,0.1875 -0.375,0.671876 -0.15625,0.640624 -0.15625,2.15625 0,1.51562 0.14062,2.07812 0.15625,0.5625 0.39063,0.75 0.23437,0.1875 0.53125,0.1875 0.29687,0 0.53125,-0.1875 0.23437,-0.1875 0.35937,-0.6875 0.17188,-0.625 0.17188,-2.14062 0,-1.515626 -0.15625,-2.078126 -0.14063,-0.5625 -0.375,-0.75 -0.23438,-0.203124 -0.53125,-0.203124 z"
     fill-rule="nonzero"
     id="path34" />
  <path
     fill="#000000"
     d="m 40.76875,41.58417 h -1.640626 v -6.20313 q -0.90625,0.84375 -2.125,1.25 v -1.5 q 0.640626,-0.20312 1.390626,-0.79687 0.765624,-0.59375 1.046874,-1.375 h 1.328126 z m 5.578124,-8.625 q 1.25,0 1.953126,0.89062 0.828124,1.04688 0.828124,3.5 0,2.4375 -0.84375,3.5 -0.6875,0.875 -1.9375,0.875 -1.25,0 -2.03125,-0.95312 Q 43.55,39.80292 43.55,37.33417 q 0,-2.4375 0.84375,-3.5 0.703124,-0.875 1.953124,-0.875 z m 0,1.35937 q -0.296874,0 -0.53125,0.20313 -0.234374,0.1875 -0.375,0.67187 -0.15625,0.64063 -0.15625,2.15625 0,1.51563 0.140626,2.07813 0.15625,0.5625 0.390624,0.75 0.234376,0.1875 0.53125,0.1875 0.296876,0 0.53125,-0.1875 0.234376,-0.1875 0.359376,-0.6875 0.171874,-0.625 0.171874,-2.14063 0,-1.51562 -0.15625,-2.07812 -0.140624,-0.5625 -0.375,-0.75 -0.234374,-0.20313 -0.53125,-0.20313 z m 7.000006,-1.35937 q 1.25,0 1.95312,0.89062 0.82813,1.04688 0.82813,3.5 0,2.4375 -0.84375,3.5 -0.6875,0.875 -1.9375,0.875 -1.25,0 -2.03125,-0.95312 Q 50.55,39.80292 50.55,37.33417 q 0,-2.4375 0.84375,-3.5 0.70313,-0.875 1.95313,-0.875 z m 0,1.35937 q -0.29688,0 -0.53125,0.20313 -0.23438,0.1875 -0.375,0.67187 -0.15625,0.64063 -0.15625,2.15625 0,1.51563 0.14062,2.07813 0.15625,0.5625 0.39063,0.75 0.23437,0.1875 0.53125,0.1875 0.29687,0 0.53125,-0.1875 0.23437,-0.1875 0.35937,-0.6875 0.17188,-0.625 0.17188,-2.14063 0,-1.51562 -0.15625,-2.07812 -0.14063,-0.5625 -0.375,-0.75 -0.23438,-0.20313 -0.53125,-0.20313 z m 4.53125,5.625 h 1.64062 v 1.17188 q 0,0.71875 -0.125,1.125 -0.125,0.42187 -0.46875,0.75 -0.34375,0.32812 -0.85937,0.51562 l -0.32813,-0.6875 q 0.5,-0.15625 0.70313,-0.45312 0.21875,-0.28125 0.23437,-0.78125 h -0.79687 z m 5.46875,-6.98437 q 1.25,0 1.95312,0.89062 0.82813,1.04688 0.82813,3.5 0,2.4375 -0.84375,3.5 -0.6875,0.875 -1.9375,0.875 -1.25,0 -2.03125,-0.95312 Q 60.55,39.80292 60.55,37.33417 q 0,-2.4375 0.84375,-3.5 0.70313,-0.875 1.95313,-0.875 z m 0,1.35937 q -0.29688,0 -0.53125,0.20313 -0.23438,0.1875 -0.375,0.67187 -0.15625,0.64063 -0.15625,2.15625 0,1.51563 0.14062,2.07813 0.15625,0.5625 0.39063,0.75 0.23437,0.1875 0.53125,0.1875 0.29687,0 0.53125,-0.1875 0.23437,-0.1875 0.35937,-0.6875 0.17188,-0.625 0.17188,-2.14063 0,-1.51562 -0.15625,-2.07812 -0.14063,-0.5625 -0.375,-0.75 -0.23438,-0.20313 -0.53125,-0.20313 z m 7,-1.35937 q 1.25,0 1.95312,0.89062 0.82813,1.04688 0.82813,3.5 0,2.4375 -0.84375,3.5 -0.6875,0.875 -1.9375,0.875 -1.25,0 -2.03125,-0.95312 Q 67.55,39.80292 67.55,37.33417 q 0,-2.4375 0.84375,-3.5 0.70313,-0.875 1.95313,-0.875 z m 0,1.35937 q -0.29688,0 -0.53125,0.20313 -0.23438,0.1875 -0.375,0.67187 -0.15625,0.64063 -0.15625,2.15625 0,1.51563 0.14062,2.07813 0.15625,0.5625 0.39063,0.75 0.23437,0.1875 0.53125,0.1875 0.29687,0 0.53125,-0.1875 0.23437,-0.1875 0.35937,-0.6875 0.17188,-0.625 0.17188,-2.14063 0,-1.51562 -0.15625,-2.07812 -0.14063,-0.5625 -0.375,-0.75 -0.23438,-0.20313 -0.53125,-0.20313 z m 7,-1.35937 q 1.25,0 1.95312,0.89062 0.82813,1.04688 0.82813,3.5 0,2.4375 -0.84375,3.5 -0.6875,0.875 -1.9375,0.875 -1.25,0 -2.03125,-0.95312 Q 74.55,39.80292 74.55,37.33417 q 0,-2.4375 0.84375,-3.5 0.70313,-0.875 1.95313,-0.875 z m 0,1.35937 q -0.29688,0 -0.53125,0.20313 -0.23438,0.1875 -0.375,0.67187 -0.15625,0.64063 -0.15625,2.15625 0,1.51563 0.14062,2.07813 0.15625,0.5625 0.39063,0.75 0.23437,0.1875 0.53125,0.1875 0.29687,0 0.53125,-0.1875 0.23437,-0.1875 0.35937,-0.6875 0.17188,-0.625 0.17188,-2.14063 0,-1.51562 -0.15625,-2.07812 -0.14063,-0.5625 -0.375,-0.75 -0.23438,-0.20313 -0.53125,-0.20313 z"
     fill-rule="nonzero"
     id="path35" />
  <path
     fill="#000000"
     d="m 88.26875,285.45 h -1.64062 v -6.2031 q -0.90625,0.84374 -2.125,1.25 v -1.5 q 0.64062,-0.20314 1.39062,-0.7969 0.76563,-0.59374 1.04688,-1.375 h 1.32812 z"
     fill-rule="nonzero"
     id="path36" />
  <path
     fill="#000000"
     d="m 222.78522,285.45 h -1.64063 v -6.2031 q -0.90625,0.84374 -2.125,1.25 v -1.5 q 0.64063,-0.20314 1.39063,-0.7969 0.76562,-0.59374 1.04687,-1.375 h 1.32813 z m 5.57812,-8.625 q 1.25,0 1.95313,0.89064 0.82812,1.04686 0.82812,3.5 0,2.4375 -0.84375,3.5 -0.6875,0.875 -1.9375,0.875 -1.25,0 -2.03125,-0.95314 -0.76562,-0.96874 -0.76562,-3.4375 0,-2.4375 0.84375,-3.5 0.70312,-0.875 1.95312,-0.875 z m 0,1.3594 q -0.29687,0 -0.53125,0.2031 -0.23437,0.1875 -0.375,0.6719 -0.15625,0.6406 -0.15625,2.15624 0,1.51562 0.14063,2.07812 0.15625,0.5625 0.39062,0.75 0.23438,0.1875 0.53125,0.1875 0.29688,0 0.53125,-0.1875 0.23438,-0.1875 0.35938,-0.6875 0.17187,-0.625 0.17187,-2.14062 0,-1.51564 -0.15625,-2.07814 -0.14062,-0.5625 -0.375,-0.75 -0.23437,-0.2031 -0.53125,-0.2031 z"
     fill-rule="nonzero"
     id="path37" />
  <path
     fill="#000000"
     d="m 357.3017,285.45 h -1.64063 v -6.2031 q -0.90625,0.84374 -2.125,1.25 v -1.5 q 0.64063,-0.20314 1.39063,-0.7969 0.76562,-0.59374 1.04687,-1.375 h 1.32813 z m 5.57812,-8.625 q 1.25,0 1.95313,0.89064 0.82812,1.04686 0.82812,3.5 0,2.4375 -0.84375,3.5 -0.6875,0.875 -1.9375,0.875 -1.25,0 -2.03125,-0.95314 -0.76562,-0.96874 -0.76562,-3.4375 0,-2.4375 0.84375,-3.5 0.70312,-0.875 1.95312,-0.875 z m 0,1.3594 q -0.29687,0 -0.53125,0.2031 -0.23437,0.1875 -0.375,0.6719 -0.15625,0.6406 -0.15625,2.15624 0,1.51562 0.14063,2.07812 0.15625,0.5625 0.39062,0.75 0.23438,0.1875 0.53125,0.1875 0.29688,0 0.53125,-0.1875 0.23438,-0.1875 0.35938,-0.6875 0.17187,-0.625 0.17187,-2.14062 0,-1.51564 -0.15625,-2.07814 -0.14062,-0.5625 -0.375,-0.75 -0.23437,-0.2031 -0.53125,-0.2031 z m 7,-1.3594 q 1.25,0 1.95313,0.89064 0.82812,1.04686 0.82812,3.5 0,2.4375 -0.84375,3.5 -0.6875,0.875 -1.9375,0.875 -1.25,0 -2.03125,-0.95314 -0.76562,-0.96874 -0.76562,-3.4375 0,-2.4375 0.84375,-3.5 0.70312,-0.875 1.95312,-0.875 z m 0,1.3594 q -0.29687,0 -0.53125,0.2031 -0.23437,0.1875 -0.375,0.6719 -0.15625,0.6406 -0.15625,2.15624 0,1.51562 0.14063,2.07812 0.15625,0.5625 0.39062,0.75 0.23438,0.1875 0.53125,0.1875 0.29688,0 0.53125,-0.1875 0.23438,-0.1875 0.35938,-0.6875 0.17187,-0.625 0.17187,-2.14062 0,-1.51564 -0.15625,-2.07814 -0.14062,-0.5625 -0.375,-0.75 -0.23437,-0.2031 -0.53125,-0.2031 z"
     fill-rule="nonzero"
     id="path38" />
  <path
     fill="#000000"
     d="m 490.31815,285.45 h -1.64063 v -6.2031 q -0.90625,0.84374 -2.125,1.25 v -1.5 q 0.64063,-0.20314 1.39063,-0.7969 0.76562,-0.59374 1.04687,-1.375 h 1.32813 z m 3.10937,-1.6406 h 1.64063 v 1.17186 q 0,0.71874 -0.125,1.125 -0.125,0.42188 -0.46875,0.75 -0.34375,0.32814 -0.85938,0.51564 l -0.32812,-0.6875 q 0.5,-0.15626 0.70312,-0.45314 0.21875,-0.28126 0.23438,-0.78126 h -0.79688 z m 5.46872,-6.9844 q 1.25,0 1.95313,0.89064 0.82813,1.04686 0.82813,3.5 0,2.4375 -0.84376,3.5 -0.6875,0.875 -1.9375,0.875 -1.25,0 -2.03122,-0.95314 -0.76562,-0.96874 -0.76562,-3.4375 0,-2.4375 0.84375,-3.5 0.70309,-0.875 1.95309,-0.875 z m 0,1.3594 q -0.29687,0 -0.53124,0.2031 -0.2344,0.1875 -0.375,0.6719 -0.15626,0.6406 -0.15626,2.15624 0,1.51562 0.14063,2.07812 0.15623,0.5625 0.39063,0.75 0.23437,0.1875 0.53124,0.1875 0.29686,0 0.53126,-0.1875 0.23437,-0.1875 0.35937,-0.6875 0.17187,-0.625 0.17187,-2.14062 0,-1.51564 -0.15624,-2.07814 -0.14063,-0.5625 -0.375,-0.75 -0.2344,-0.2031 -0.53126,-0.2031 z m 7,-1.3594 q 1.25,0 1.95313,0.89064 0.82813,1.04686 0.82813,3.5 0,2.4375 -0.84376,3.5 -0.6875,0.875 -1.9375,0.875 -1.25,0 -2.03124,-0.95314 -0.76563,-0.96874 -0.76563,-3.4375 0,-2.4375 0.84373,-3.5 0.70314,-0.875 1.95314,-0.875 z m 0,1.3594 q -0.29687,0 -0.53124,0.2031 -0.2344,0.1875 -0.375,0.6719 -0.15626,0.6406 -0.15626,2.15624 0,1.51562 0.14063,2.07812 0.15623,0.5625 0.39063,0.75 0.23437,0.1875 0.53124,0.1875 0.29686,0 0.53126,-0.1875 0.23437,-0.1875 0.35937,-0.6875 0.17187,-0.625 0.17187,-2.14062 0,-1.51564 -0.15624,-2.07814 -0.14063,-0.5625 -0.375,-0.75 -0.2344,-0.2031 -0.53126,-0.2031 z m 7,-1.3594 q 1.25,0 1.95313,0.89064 0.82813,1.04686 0.82813,3.5 0,2.4375 -0.84376,3.5 -0.6875,0.875 -1.9375,0.875 -1.25,0 -2.03124,-0.95314 -0.76563,-0.96874 -0.76563,-3.4375 0,-2.4375 0.84373,-3.5 0.70314,-0.875 1.95314,-0.875 z m 0,1.3594 q -0.29687,0 -0.53124,0.2031 -0.2344,0.1875 -0.375,0.6719 -0.15626,0.6406 -0.15626,2.15624 0,1.51562 0.14063,2.07812 0.15623,0.5625 0.39063,0.75 0.23437,0.1875 0.53124,0.1875 0.29686,0 0.53126,-0.1875 0.23437,-0.1875 0.35937,-0.6875 0.17187,-0.625 0.17187,-2.14062 0,-1.51564 -0.15624,-2.07814 -0.14063,-0.5625 -0.375,-0.75 -0.2344,-0.2031 -0.53126,-0.2031 z"
     fill-rule="nonzero"
     id="path39" />
</svg>
